<svg version="1.1" xmlns="http://www.w3.org/2000/svg" viewBox="0 0 1170.103174603175 1201.25" width="3510.3095238095248" height="3603.75">
  <!-- svg-source:excalidraw -->
  
  <defs>
    <style>
      @font-face {
        font-family: "Virgil";
        src: url("https://excalidraw.com/Virgil.woff2");
      }
      @font-face {
        font-family: "Cascadia";
        src: url("https://excalidraw.com/Cascadia.woff2");
      }
    </style>
  </defs>
  <rect x="0" y="0" width="1170.103174603175" height="1201.25" fill="#ffffff"></rect><g stroke-linecap="round" transform="translate(10 10.916666666666742) rotate(0 378.8888888888888 161.11111111111097)"><path d="M0.06989722326397896 -0.39113582447171213 C189.5347131593773 -2.4654723487049335, 380.7888364990551 -1.8150248608738178, 757.8131069058343 -0.22765957191586494 M757.2632818486028 -1.2453251927892013 C756.852870531785 74.06788966612716, 758.4720381422337 148.52319717677312, 758.066371509905 322.28023374835857 M757.3001581067009 321.44307968674406 C457.49943049529344 321.8992920870331, 158.20883548276285 321.938146709874, 0.5605913169682026 321.7256835943292 M1.2837647289221927 321.4384360253523 C-1.0991646158511554 241.7646629903252, -1.2867490973404563 161.05437203805795, -1.020261155120906 1.1967251587711543" stroke="#000000" stroke-width="1.5" fill="none" stroke-dasharray="1.5 7"></path></g><g stroke-linecap="round" transform="translate(41.111111111111086 40.91666666666674) rotate(0 103.33333333333337 38.33333333333326)"><path d="M0.4374649543315172 0.8708105366677046 L205.56208215343457 0.6009617727249861 L207.69239787446958 77.73779852005327 L0.6056948322802782 78.16191566797579" stroke="none" stroke-width="0" fill="#ced4da"></path><path d="M0.012178978122953325 1.2425329730799757 C52.05614275558449 -1.2432952503240802, 100.88326964120414 -2.274037709100435, 206.32139829029327 1.4904280792948565 M0.42238083681246447 0.0288177744748611 C62.45871269125072 -0.7360916861432968, 123.03884487011943 -1.5784077078203735, 207.21997913215003 0.42064534610134546 M206.74047822567326 -1.0422351937741041 C204.71546485812095 21.292093752883336, 206.26968034893898 42.17177372798316, 206.67955292078358 74.69903914319957 M205.87488184465718 -0.24514322075992823 C207.2619228051665 25.27318236418063, 206.31957906351116 50.897052039392186, 206.192351352113 76.99211784607405 M206.0433069539873 76.22639992019803 C146.48303280777654 73.72963485602085, 90.32497066938211 74.69100267987541, -1.4577925565479954 76.98898553836817 M206.41171704840232 77.17689542826737 C145.17040008564268 77.79516587697385, 82.92800205803128 79.20672352739683, -0.5014734087867457 77.3114591216628 M-1.47160873003304 76.64165924179042 C1.3896173023618748 49.69725225834787, 1.6898845815099766 25.5800566549102, 1.7876525800675154 -0.22230756096541882 M0.301009894348681 76.71527677184577 C0.6347151311424868 50.669125950584714, -0.541524866006027 23.586612481313402, -0.1554749896749854 -0.9332266012206674" stroke="#343a40" stroke-width="1" fill="none"></path></g><g transform="translate(68.94444444444446 66.75) rotate(0 75.5 12.5)"><text x="75.5" y="18" font-family="Virgil, Segoe UI Emoji" font-size="20px" fill="#343a40" text-anchor="middle" style="white-space: pre;" direction="ltr">Polling Publisher</text></g><g stroke-linecap="round" transform="translate(400 45.36111111111131) rotate(0 121.1111111111112 34.44444444444446)"><path d="M-1.478638706728816 0.6309874933212996 L240.61951233467306 -0.408981891348958 L240.25734491666998 70.29647257075544 L1.4719073791056871 67.32998569951292" stroke="none" stroke-width="0" fill="#ced4da"></path><path d="M-0.9851249546858032 -0.40932763842088343 C82.9580410816032 1.1982079009096187, 169.24369073300832 1.8685060981734554, 241.97678648575211 -0.7689951539291774 M-0.7708391655684428 -0.04786515431278756 C64.19902344498226 -0.7251186193387293, 127.30816496535161 0.2905684453622911, 241.64316881544218 -0.6711826848801353 M242.15807841366376 -0.2857829313725233 C243.5553399620579 25.684868747989345, 242.38368532042963 49.237675655012346, 241.0660270864352 70.19348930836554 M243.16284386741216 0.7474349578842521 C241.01670239791287 14.241742701269693, 240.90727968439472 29.339305716566756, 242.1714592717796 68.51050806780245 M242.5107590146996 69.55717455840828 C190.16158769460793 70.5134778232343, 135.3696223658531 70.32995883755288, 0.18819410945535073 67.44945040812672 M241.43185257247475 68.50834992335083 C159.66122228335163 70.89081936545355, 77.24373521398368 70.12576987996461, 0.7493878547644296 68.79883422268232 M-1.3909018356353045 68.66638093710776 C-0.8449952458962798 46.70092863713703, -1.334196732006967 27.251835666389937, 1.5214375536888838 1.3121541161090136 M0.8882881114259362 69.44431553025629 C1.374746385175321 51.99671631109799, 0.11498454507026418 34.84054375057006, -0.06387948896735907 0.47318805661052465" stroke="#343a40" stroke-width="1" fill="none"></path></g><g transform="translate(410.5 66.19444444444434) rotate(0 109.5 12.5)"><text x="109.5" y="18" font-family="Virgil, Segoe UI Emoji" font-size="20px" fill="#343a40" text-anchor="middle" style="white-space: pre;" direction="ltr">Transaction log tailing</text></g><g stroke-linecap="round" transform="translate(233.33333333333337 202.02777777777783) rotate(0 106.66666666666669 45.55555555555554)"><path d="M1.726426212117076 0.3196851033717394 L212.85295819056535 -0.18851655535399914 L213.450689840441 92.02706570281748 L-1.9559037405997515 89.68164862050776" stroke="none" stroke-width="0" fill="#ced4da"></path><path d="M-1.7246710549485866 1.2355065767583435 C72.02249996410389 -0.985411162334463, 139.86720035203376 -0.5880799320665806, 214.23328342212818 -0.11226378578273577 M0.31961838115588753 -0.7906232241487594 C44.80439322172191 1.5521127510452177, 88.07991712983288 1.598574436769774, 213.57568986023554 0.13991009504883548 M213.03757234600687 -0.6786192376166582 C211.93102068973502 29.29312877150045, 215.24343861413917 60.34193175803455, 212.84976508406305 92.78815058349733 M213.56158548997098 -0.04014694597572088 C212.82947121084567 28.123267974601017, 212.73743165553446 58.31158619260207, 213.3230949978655 90.89641974131678 M213.28403677350363 91.97487157018817 C137.28782871973098 91.72690815539742, 57.289191630294724 91.0729812098154, 0.6525175532358697 91.60492335978485 M212.84081824104825 91.65159141622189 C140.936221034031 92.64253690157436, 69.66932304409481 93.30160442845875, 0.37542055225954385 91.0100892315552 M-0.7413818817585707 91.86629674314622 C1.790532288638254 59.32551021046107, -1.4317368291939299 30.187340178630407, -1.1777815204113722 -0.6917717773467302 M-0.33882482443004847 91.6980110482416 C1.1476894881162376 66.55737112203818, 1.4206802215013237 41.10795529404032, -0.1287088254466653 -0.9037131359800696" stroke="#343a40" stroke-width="1" fill="none"></path></g><g transform="translate(267.7777777777778 220.80555555555566) rotate(0 72 25)"><text x="0" y="18" font-family="Virgil, Segoe UI Emoji" font-size="20px" fill="#343a40" text-anchor="start" style="white-space: pre;" direction="ltr">Transactional </text><text x="0" y="43" font-family="Virgil, Segoe UI Emoji" font-size="20px" fill="#343a40" text-anchor="start" style="white-space: pre;" direction="ltr">Outbox</text></g><g transform="translate(490.0000000000001 275.25) rotate(0 118.50000000000006 12.5)"><text x="0" y="18" font-family="Virgil, Segoe UI Emoji" font-size="20px" fill="#343a40" text-anchor="start" style="white-space: pre;" direction="ltr">Transactional Messaging</text></g><g stroke-linecap="round" transform="translate(11.1111111111112 344.25) rotate(0 378.3333333333333 153.88888888888903)"><path d="M-0.7356464140117169 0.011949240416288377 C271.3492515631641 -2.0803436105574176, 544.818647373592 -2.475419956954817, 756.860062234352 -0.6025522597134114 M756.4451312896967 -1.1556617136823937 C755.823407241252 116.47808554239667, 755.3727620666061 229.88125835147332, 755.5511839011353 308.41736281830146 M757.2853275465468 307.1571104744245 C525.9850235071654 305.118754881302, 295.3580112463484 305.0888190683518, -0.6397963754832745 307.3669368246366 M1.0747336135628625 308.0774380707534 C1.9095667480325282 205.2577779928409, 2.6499965600543796 100.03602273855591, 0.699643157660644 0.523143436970729" stroke="#343a40" stroke-width="1.5" fill="none" stroke-dasharray="1.5 7"></path></g><g stroke-linecap="round" transform="translate(66.66666666666669 393.1388888888889) rotate(0 97.22222222222226 35.55555555555554)"><path d="M0.46509787254035473 -1.260594604536891 L196.28228884417985 -1.4129803758114576 L192.46872364957306 73.0926218713737 L1.5059086363762617 70.82689762964014" stroke="none" stroke-width="0" fill="#ced4da"></path><path d="M0.4352774042636156 -0.7244187910109758 C48.91010343893951 1.9809680853763394, 98.05943089268278 1.7667261634746365, 196.1729345605192 -0.05360695905983448 M0.7006154796108603 -0.5901837041601539 C60.86652003953029 1.7744640930969684, 122.76675286940822 0.8107246681530444, 195.29720873706464 -0.21483093407005072 M196.31706097577188 1.0725837033241987 C193.7888908398235 22.298038298678062, 195.8092975032413 41.94173439488642, 196.10868868086908 69.84464756130342 M194.309972952534 0.9266139874234796 C194.73730721612364 16.113422232473056, 193.40067880888373 31.8586420757282, 195.44123152964238 71.02050069729898 M193.35185989592645 70.96236959575776 C133.3955231227188 74.11908715182085, 70.22367312014104 71.86561869793672, 0.8979586381465197 72.47253308176164 M195.3147516655219 71.71097973744486 C124.70343827125103 69.48155214001112, 54.64548390865741 68.28300093223028, 0.9346245368942618 70.37213153402422 M-0.8267198782414198 72.5158685195363 C0.8206855799174972 45.21839912877313, -1.0825108145260147 17.594420262301952, 0.2995674032717943 0.4181233327835798 M0.4093791088089347 70.25007242719744 C1.244444896177285 52.83086110910192, 0.28957041044616016 33.48403843999321, -0.835584924556315 -0.5198932578787208" stroke="#343a40" stroke-width="1" fill="none"></path></g><g transform="translate(117.38888888888891 416.19444444444434) rotate(0 46.5 12.5)"><text x="46.5" y="18" font-family="Virgil, Segoe UI Emoji" font-size="20px" fill="#343a40" text-anchor="middle" style="white-space: pre;" direction="ltr">Messaging</text></g><g stroke-linecap="round" transform="translate(440.0000000000001 388.69444444444457) rotate(0 133.33333333333331 38.8888888888888)"><path d="M0.9880492109805346 -1.8765367586165667 L268.3607914863775 1.0991722624748945 L264.8109485923002 76.41061003485481 L1.4458813685923815 75.91732110062401" stroke="none" stroke-width="0" fill="#ced4da"></path><path d="M1.108148500665862 0.824243641830068 C88.8311100349578 0.19244793039473496, 176.29650326329957 1.105863321447577, 266.9965049302263 -0.6063157117448039 M-0.6792338099600169 0.6324154200203214 C63.6492943552049 -0.9820153975475882, 126.45721859567766 -1.5203287700769161, 266.25654679061597 0.18344715857247448 M264.6909458717952 1.9815107602626085 C268.88729256960664 18.14680750088558, 268.1124198493651 36.69674970354468, 267.8439278087268 77.35036616379182 M265.87404138936347 -0.8147607007995248 C267.0770377533303 25.068527602590603, 267.1562480049 49.56984168570485, 266.2337119389946 78.62011832071255 M266.02498874742037 76.90639384263649 C169.24539993347054 75.89910965661939, 72.74855772983028 76.53565999537273, -1.352487911929529 77.39082102747562 M267.12336822690094 77.90490784762135 C164.55450040762156 76.0052706762446, 62.91965303950452 75.64778399166923, 0.030634596480539067 78.2279884898791 M0.24142071418464184 79.39707218462388 C0.6888792354406584 46.10243103363444, 1.11354951446669 14.42351444624363, -1.5499371010810137 -1.0138062816113234 M0.294102163054049 78.38329055977772 C0.7082843186540736 59.78493465121002, 0.35126677176190746 42.4693384090852, 0.0853236922994256 0.6599509855732322" stroke="#343a40" stroke-width="1" fill="none"></path></g><g transform="translate(485.3333333333335 402.5833333333335) rotate(0 88 25)"><text x="88" y="18" font-family="Virgil, Segoe UI Emoji" font-size="20px" fill="#343a40" text-anchor="middle" style="white-space: pre;" direction="ltr">Remote Procedure</text><text x="88" y="43" font-family="Virgil, Segoe UI Emoji" font-size="20px" fill="#343a40" text-anchor="middle" style="white-space: pre;" direction="ltr">Invocation</text></g><g stroke-linecap="round" transform="translate(270 540.9166666666666) rotate(0 108.33333333333337 46.11111111111114)"><path d="M-1.3614646513015032 0.7398170251399279 L216.37428719612467 -1.449422536417842 L215.59141124101984 92.5675708206578 L-1.6778049189597368 90.90097911676605" stroke="none" stroke-width="0" fill="#ced4da"></path><path d="M-1.4086770674499234 1.4822931247376758 C61.468455175964046 1.5483493545026932, 123.13125697028515 1.654215353593007, 216.99069579830552 1.027405335021313 M0.6623251174276154 -0.04752065157466939 C76.57809687964986 0.6479456209846711, 153.8235723865296 -0.6151925700249098, 215.98588674867412 0.5981105780699271 M215.40065674173343 0.43491354398429394 C218.59545741121602 28.568784453285257, 216.84036282341313 56.38102869937821, 217.62749944316852 92.58117673939307 M216.87785174852866 0.1150865564122796 C215.20699237157703 23.38399039333067, 216.6036040919006 46.71502897298588, 216.10922133332747 91.77853660213043 M216.5844673541466 91.11751956241669 C134.05803002632715 92.29236218866836, 49.43878657876048 90.53807179241107, 1.3756605053505933 91.36809200072004 M217.3468874648551 92.54504757238772 C144.2658571011449 94.02143866356157, 70.39084669046619 92.46310686840694, 0.5043869164508263 93.05975022006591 M1.8814630527049303 92.32523934191306 C1.3570118732026057 59.39566370358487, -1.3648986630866093 30.391897925486177, -1.936673341318965 -1.1588588077574968 M0.8298609694465995 92.44107837902595 C0.2052348346449434 61.27169209946365, -1.125652453210205 30.994823863419406, 0.48224915470927954 0.6489469716325402" stroke="#343a40" stroke-width="1" fill="none"></path></g><g transform="translate(301.33333333333337 574.5277777777778) rotate(0 77 12.5)"><text x="77" y="18" font-family="Virgil, Segoe UI Emoji" font-size="20px" fill="#343a40" text-anchor="middle" style="white-space: pre;" direction="ltr">Domain Specific</text></g><g transform="translate(50.00000000000006 597.4722222222223) rotate(0 67.49999999999997 25)"><text x="0" y="18" font-family="Virgil, Segoe UI Emoji" font-size="20px" fill="#343a40" text-anchor="start" style="white-space: pre;" direction="ltr">Communication</text><text x="0" y="43" font-family="Virgil, Segoe UI Emoji" font-size="20px" fill="#343a40" text-anchor="start" style="white-space: pre;" direction="ltr">Style</text></g><g stroke-linecap="round" transform="translate(12.222222222222285 660.9166666666666) rotate(0 377.22222222222223 265)"><path d="M-0.7818435318768024 0.4308727748692036 C157.72511524555998 -0.9744390954698127, 314.75193409990106 -2.1024382343019052, 754.2191489119497 -0.04064905568957329 M755.2178448711005 0.011995112150907518 C755.7209294968885 120.56636397298426, 755.7495503836911 242.52511439509692, 754.820089367446 529.9560782067477 M754.3071007628408 530.6831453092396 C542.2587405309288 528.2720160011244, 329.66996205560855 528.7877752546262, 0.0262958399951458 530.5264924056828 M0.231403399258852 530.4734856240451 C-0.5031340933218598 376.8897616485134, -0.6508475876227021 222.84857841394842, 0.5132385022938252 0.13574422523379326" stroke="#343a40" stroke-width="1.5" fill="none" stroke-dasharray="1.5 7"></path></g><g stroke-linecap="round" transform="translate(64.44444444444451 712.0277777777777) rotate(0 100.55555555555557 48.888888888888914)"><path d="M-1.1569070797413588 -1.06164619512856 L202.3876260603882 -1.3468834478408098 L201.70020038738022 97.70623256245426 L-1.559088883921504 98.99826200285725" stroke="none" stroke-width="0" fill="#ced4da"></path><path d="M0.5378916257703713 1.6558915615982002 C66.62974246750129 -1.9579836640225303, 134.77599633588548 -0.44092792220183746, 200.51708375212493 0.9445703762936777 M0.05005620772517658 0.31502310199906486 C54.20179524681126 0.1935133616056916, 109.48345089711293 -0.3246226198994043, 201.10736947583882 0.8081677700936402 M201.74880382894645 -1.9348173718899488 C201.77473136372868 31.43375913074449, 202.00130250640217 64.18728627119631, 200.94713297962318 98.38939272219113 M200.7102735118113 -0.8317558029666543 C201.39508681547727 25.75683323697499, 201.93767120492544 50.58780718750013, 200.67393366257767 96.78515961838684 M202.7492156984196 96.47094374386197 C152.58693253350873 98.4433733261653, 108.09379610399137 98.76890926481674, 1.0561064870351962 96.09680545373719 M201.87534766122747 96.98101644217283 C126.80515014105659 96.33775516023682, 51.15660654374682 96.38383188726216, 0.49722963407880993 98.13711639601493 M-0.6508153397589922 98.27051227146558 C1.7579124076912804 76.95682114300632, -0.6937810675551489 53.48181600392695, -0.9052487928420305 -1.2644792776554823 M0.3836914310231805 96.94684469772301 C0.6298176414643728 76.64058109114157, 0.5295702285443746 56.473858156862384, -0.403409450314939 -0.9775761524215341" stroke="#343a40" stroke-width="1" fill="none"></path></g><g transform="translate(114.00000000000011 735.9166666666666) rotate(0 51 25)"><text x="51" y="18" font-family="Virgil, Segoe UI Emoji" font-size="20px" fill="#343a40" text-anchor="middle" style="white-space: pre;" direction="ltr">Client-side</text><text x="51" y="43" font-family="Virgil, Segoe UI Emoji" font-size="20px" fill="#343a40" text-anchor="middle" style="white-space: pre;" direction="ltr">discovery</text></g><g stroke-linecap="round" transform="translate(488.8888888888889 718.6944444444443) rotate(0 107.77777777777783 45.5555555555556)"><path d="M-1.246705649420619 0.2715968172997236 L213.80552343051477 0.19929215125739574 L215.58698890130563 92.43014380811826 L-0.9726827722042799 90.74101403831617" stroke="none" stroke-width="0" fill="#ced4da"></path><path d="M-1.7088930514388638 -1.0111900054196155 C62.20927023545162 1.8757782607284073, 125.09715760138644 1.2749366009384875, 215.49302174628295 -1.3627154026360546 M-0.06557800259697621 0.27884864136013565 C77.81514152096872 -0.865917742765657, 156.38380500510382 -1.109169552470497, 216.223669446607 -0.02367306027635745 M216.00366413738175 -1.350646672770381 C214.0035096012264 34.112741288625564, 213.1799518071323 65.01125078627639, 213.59457522775574 92.62970788135306 M216.29762003250016 0.19436658825725317 C215.5869970312964 29.15614799544632, 215.45203968795647 56.804955426500136, 214.98842060990228 90.94014947685525 M213.98876814442636 90.1682764890522 C159.68765889468273 90.98772656933589, 108.80961918223542 90.27057061392982, -0.6133092771097979 91.74510774404982 M214.92571427598435 90.85876892505074 C131.63541547759908 90.29287487512373, 47.5037468774541 89.19449710183781, -0.5838774556899684 91.24976350063974 M-0.29418823309242725 90.35091150655524 C0.8524969511354967 69.9325392246247, 2.2391022734964894 49.20771133051155, -1.7407565433532 -0.059104202315211296 M-0.3923251023516059 91.18609549674318 C0.3609395677016849 67.62060616010186, 1.6174521798061008 46.04945485904403, 0.7756197163835168 -0.06067045126110315" stroke="#343a40" stroke-width="1" fill="none"></path></g><g transform="translate(517.7777777777778 750.8055555555554) rotate(0 83.5 12.5)"><text x="0" y="18" font-family="Virgil, Segoe UI Emoji" font-size="20px" fill="#343a40" text-anchor="start" style="white-space: pre;" direction="ltr">Self Registration</text></g><g stroke-linecap="round" transform="translate(280 894.25) rotate(0 112.77777777777783 47.22222222222217)"><path d="M1.292962459847331 0.5908992905169725 L224.85520810033722 1.527989150956273 L227.11986136581345 93.0502113983448 L-1.0233682710677385 95.43463173363762" stroke="none" stroke-width="0" fill="#ced4da"></path><path d="M0.6103692359328902 0.1957957165489159 C72.87583754522026 1.7020623787815512, 147.15811340535376 -0.887372424894934, 226.8183726682563 1.2985591728290278 M-0.14786303141945784 -0.6819176486507336 C87.7828974677656 1.4404571182526118, 176.94481668673635 0.147538924772061, 225.95855176793367 0.8381036995575146 M224.13617232959314 0.9522995632141829 C226.4062832190863 27.764633315408368, 227.13927342437424 52.785186595800795, 224.4385975353007 93.76384871680693 M224.7085267180164 -0.9290168574079871 C225.6639454454288 23.482016212203412, 226.83011035026163 46.8675070225985, 225.36476679384305 94.8801278150122 M225.9921792259647 92.92488675861017 C138.05448329195508 93.7333367795103, 50.10119459360604 93.40997298807899, 1.26003758185238 95.32323804068832 M226.2175323700371 94.24919627780982 C149.3166940325593 96.05713321617861, 73.67103397675687 96.29245801260818, 0.3621546885851602 94.07599713871718 M1.4068121332675219 94.67292940099196 C1.4049356258474288 65.36534544359886, 1.721524921711534 33.689198787841484, 0.9405033607035875 -0.9622754771262407 M0.10101754870265722 94.66253787041114 C-0.1359423970700141 76.55021476290284, 0.5968519175528649 56.37359207195948, -0.7518385211005807 0.0027479538694024086" stroke="#343a40" stroke-width="1" fill="none"></path></g><g transform="translate(312.7777777777778 928.9722222222222) rotate(0 80 12.5)"><text x="80" y="18" font-family="Virgil, Segoe UI Emoji" font-size="20px" fill="#343a40" text-anchor="middle" style="white-space: pre;" direction="ltr">Service Registry</text></g><g stroke-linecap="round" transform="translate(76.66666666666669 1029.8055555555557) rotate(0 105.55555555555557 48.33333333333326)"><path d="M-1.7557906825095415 -1.7720354180783033 L209.18944505333076 -0.7422751169651747 L212.7489400851644 96.30907319175687 L-1.3946273643523455 96.60916201459851" stroke="none" stroke-width="0" fill="#ced4da"></path><path d="M0.004844389860000461 1.1396869320822693 C70.6215438785661 0.7817326412951833, 141.54823881975253 2.777920320762265, 209.8821588156945 -0.9020520560057423 M0.17061590725682863 -0.5057168056256343 C73.31646191982614 1.2139735503314126, 148.3902590681243 0.6066953159798373, 211.63732324470476 0.807436696947081 M211.60357344999085 -0.35043993778526783 C211.88315502151642 26.355790609183376, 210.75508031591568 50.15561666091276, 209.71733517303238 97.70835966678943 M211.81771244677822 0.3530739853158593 C210.51461915306544 25.96318268775936, 212.0468328707645 54.3384595802053, 210.8435833362035 96.83344409956273 M212.63013128121858 98.41976192340171 C137.4893181815892 98.47822871653702, 61.93941397657875 97.58232366995277, 0.6010847839564941 97.69040903059721 M211.3112165473288 96.98324632897682 C157.7218840307926 97.89846299403231, 102.14964232149404 98.80994139376354, 0.3565335562655199 97.39006515957917 M1.2281349319964647 95.96796906801548 C1.2375556260036924 72.22386570988833, 0.5976210266041257 50.56688812995943, -0.4632142763584852 0.18366589955985546 M0.2666205307468772 96.70630634917553 C-1.1503753905805438 58.931743107115146, -1.4510683959039539 22.78593448083845, 0.4597868761047721 0.3722964534536004" stroke="#343a40" stroke-width="1" fill="none"></path></g><g transform="translate(127.77777777777783 1055.25) rotate(0 54.5 25)"><text x="0" y="18" font-family="Virgil, Segoe UI Emoji" font-size="20px" fill="#343a40" text-anchor="start" style="white-space: pre;" direction="ltr">Server-side</text><text x="0" y="43" font-family="Virgil, Segoe UI Emoji" font-size="20px" fill="#343a40" text-anchor="start" style="white-space: pre;" direction="ltr">discovery</text></g><g stroke-linecap="round" transform="translate(496.66666666666674 1026.4722222222222) rotate(0 108.33333333333326 46.666666666666686)"><path d="M-1.4549452979117632 0.33552450127899647 L216.76986790510512 1.6269806642085314 L216.65030867668486 91.71679892328882 L0.2674927394837141 93.47536095169687" stroke="none" stroke-width="0" fill="#ced4da"></path><path d="M-1.439224882996794 -0.8278391382352748 C43.240939435882666 -0.15195191709555678, 87.89459463879915 0.12670161443875738, 215.87827161668872 -1.048849482963387 M-0.559818975734504 -0.7072696802396756 C66.83796746957027 -0.499380614059798, 132.91839890995982 -1.2361435841392796, 217.30074823207096 0.7193956321170945 M215.27914009677863 -1.2950550634413958 C215.14118971303103 31.598694880182556, 215.2364807911217 63.83140165669225, 218.0395616708944 92.34808241141343 M217.60591267949587 0.34428528044372797 C216.77422533153242 33.09981168278805, 216.32799590347952 65.60524748607232, 216.6456728816653 93.94233753376955 M216.47293988708748 91.86763626775544 C169.80944363823417 92.88688538929814, 119.99574445432609 93.38333788412744, 0.32801272520029917 94.77010347697478 M216.92305288049337 92.91940096408749 C139.11420874334186 93.7310694784701, 62.23040632136789 93.43774155109615, -0.7848185026066024 93.97797801002962 M0.18089443631470203 93.28866868031525 C-0.8501062303781514 70.23984847155712, -2.023999264836312 46.539140369122244, -1.6357675772160292 -0.13671979494392872 M0.8442435404285789 93.81327336126321 C-1.4801295012856523 62.864939145433425, 0.13111520701398438 33.397288256324835, 0.4724417766556144 -0.7629990568384528" stroke="#343a40" stroke-width="1" fill="none"></path></g><g transform="translate(545.5 1048.138888888889) rotate(0 59.5 25)"><text x="59.5" y="18" font-family="Virgil, Segoe UI Emoji" font-size="20px" fill="#343a40" text-anchor="middle" style="white-space: pre;" direction="ltr">3rd-Party</text><text x="59.5" y="43" font-family="Virgil, Segoe UI Emoji" font-size="20px" fill="#343a40" text-anchor="middle" style="white-space: pre;" direction="ltr">Registration</text></g><g stroke-linecap="round" transform="translate(785.1031746031749 346.25) rotate(0 159.375 122.50000000000006)"><path d="M0.528505137541947 -0.716615712678534 C67.88962821781297 0.6328314504339172, 138.07204924272224 2.4629989449182523, 318.6190016494126 0.5684507955852626 M318.96017378862695 1.4924228102559889 C321.61676726635176 92.90227923924279, 320.5757873458267 186.87689132934713, 319.92657583125094 245.39495831320247 M317.9350107149994 244.24971773626612 C254.61177573884524 242.82760874750866, 191.33985135579732 242.60621351910882, -0.9476416180729894 243.60742799872895 M1.5002950663545276 243.45236399942456 C0.41706535032700565 152.22328131602603, 0.2801234580459503 63.29123243974118, 0.7107716155855802 0.8874719315547791" stroke="#343a40" stroke-width="1.5" fill="none" stroke-dasharray="1.5 7"></path></g><g stroke-linecap="round" transform="translate(810.1031746031749 413.75) rotate(0 138.75 53.75000000000006)"><path d="M-1.0292879063636065 -0.75652807764709 L279.1331638973206 -1.5455124359577894 L278.06920388154685 107.54056614823651 L-1.831458481028676 109.16766226477932" stroke="none" stroke-width="0" fill="#ced4da"></path><path d="M0.23464307946678437 -1.1766230588515345 C65.1990363346074 1.4409088989660226, 132.5426269756981 0.28082702776909696, 278.54514211484195 -0.15021846364104188 M0.5989177180417804 -0.6967084052180824 C92.18258481985559 1.1525080765770326, 182.75941407133047 1.0833074817985842, 277.3530833170205 -0.4828041030360935 M277.7175644058734 -1.9485640842467546 C279.13779027301354 35.751726738410106, 276.87908125955147 75.17586208926521, 277.54489195533097 106.47957578115177 M276.7091311356053 -0.030953197740018368 C276.45561755292584 28.206907484447612, 276.5043508171337 54.036413407418934, 277.7630762895569 108.45557320211094 M275.99695417632205 107.55506124250383 C181.24859610103047 108.76230935785328, 83.19828891962355 109.51902576821534, -0.5629329022058006 106.30172162379753 M277.215002741257 107.58217921735594 C221.398020177631 106.20075137114252, 164.98119224700346 106.21679026165269, 0.7215256747446386 107.03260359845066 M-1.7892480473965406 106.7075041215868 C0.5346238800557321 83.38748304988266, -2.4842360428301626 54.21452427981427, 0.23809552378952503 1.1090288441628218 M0.7064939280971885 106.66840317938488 C0.23270088105928177 63.98434267775163, -0.2300614449428392 21.353170092683314, 0.016967936418950558 -0.9407411208376288" stroke="#343a40" stroke-width="1" fill="none"></path></g><g transform="translate(874.3531746031749 455) rotate(0 74.5 12.5)"><text x="74.5" y="18" font-family="Virgil, Segoe UI Emoji" font-size="20px" fill="#343a40" text-anchor="middle" style="white-space: pre;" direction="ltr">Circuit breaker</text></g><g stroke-linecap="round" transform="translate(780.1031746031749 663.7500000000001) rotate(0 175 263.75)"><path d="M-1.2567097615703902 -1.1301727643108403 C97.32565639094426 -2.2459151933023005, 194.21796090094563 -1.0201833184509548, 350.19632697121546 0.5699075400527678 M349.8459200017154 -0.7955971948802472 C348.6631593839545 107.00602126787416, 348.75413879317233 215.95878795450554, 349.78567951843144 527.6360342033207 M349.59996193190784 528.6956631231684 C240.25692178019213 525.9655321356298, 129.79463224829223 524.7207785521872, 0.6067912500856555 528.3933768846815 M0.08950661346316338 528.0737384803593 C0.3891374148707837 327.31889143218285, 0.1434751309733837 125.7930490531958, -0.6767526991665364 -0.32954146787524224" stroke="#343a40" stroke-width="1.5" fill="none" stroke-dasharray="1.5 7"></path></g><g stroke-linecap="round" transform="translate(811.3531746031749 711.2500000000001) rotate(0 135.625 44.375)"><path d="M1.4638951104134321 -0.31912523321807384 L270.75586733035743 -0.27809631638228893 L271.2627119105309 90.36663323827088 L0.5030445735901594 87.21461177058518" stroke="none" stroke-width="0" fill="#ced4da"></path><path d="M0.9938575404008598 -1.4475413100917758 C102.9605955826591 0.49725849514961495, 205.84196258926994 1.0012264395603263, 272.55420319318455 -1.3217877899394752 M0.25526539566242085 0.6008200207190201 C70.15820938227662 0.0014378125261115815, 140.03548803007848 -0.1185029123745662, 270.8620268405516 -0.5783857340153619 M272.44024557061493 -1.6560608465224504 C270.76383047968847 24.058756343205463, 270.5598661866854 46.69260849081912, 269.86540103144944 88.77318909578025 M270.7563932677731 -0.8905713250860572 C270.1371751151164 24.748337922501378, 271.7443819663604 48.018992508528754, 271.67521230783314 88.17331141326576 M271.23274393709227 90.11967337960543 C171.58878591808525 89.26084636399725, 73.47941236446844 88.84605343981855, -0.43591063379314815 89.70156817094265 M271.1948232622443 89.25513679498673 C175.14574255290606 86.62464323706685, 78.58936517757652 86.11609043698517, 0.4626289369947402 88.51372067310776 M1.6574702877551317 88.49826022796333 C0.4101098227431066 58.10179385251831, -1.1997573328088038 30.258517708396532, -1.9046140890568495 -1.6266928631812334 M0.6739030024036765 88.72182902786881 C0.26934252799255776 52.949096541968174, 0.2211328905890696 18.726383320288733, -0.957511798478663 -0.05202436354011297" stroke="#343a40" stroke-width="1" fill="none"></path></g><g transform="translate(873.8531746031749 747.2500000000001) rotate(0 67.5 12.5)"><text x="0" y="18" font-family="Virgil, Segoe UI Emoji" font-size="20px" fill="#343a40" text-anchor="start" style="white-space: pre;" direction="ltr">API Gateway</text></g><g stroke-linecap="round" transform="translate(817.6031746031749 983.7500000000001) rotate(0 136.875 53.125)"><path d="M-0.6763962488621473 1.6766711752861738 L272.3443022388965 1.5633737724274397 L275.36536884494126 105.7195141594857 L0.9179925341159105 106.6676143091172" stroke="none" stroke-width="0" fill="#ced4da"></path><path d="M0.4645684487446257 -0.40726064816875845 C73.28104037642453 2.643481731909098, 144.65285412194595 1.2395812668207604, 272.87399758166765 1.4122146797412771 M0.3503283306591282 0.591154246780232 C84.81645883813498 -1.1841657397781948, 170.46056355353423 -1.8735473433539163, 273.903007330781 0.7574241298854653 M275.52823176793754 1.025670113041997 C272.2485216408386 31.96642131416593, 273.3598011880531 62.15943272341975, 271.9470923822373 106.09638297744095 M274.18913781736046 -0.3784181931987405 C274.06959011784056 35.619057065225206, 274.8808493577526 71.7875671365764, 272.76936939451844 106.23004279937595 M274.98801249930494 105.18222394785927 C174.4385645944793 106.77883439090371, 75.44441960155035 108.25868352070407, -0.4222207649564137 105.63328478895099 M273.8764128206983 106.94629792898367 C178.40213317411576 105.14647127404659, 81.9631135629407 105.66053896261087, 0.40490684318863546 105.65541255862611 M1.6211552899330854 105.03700035996735 C-0.7206182479276322 77.35382472292986, -1.016851365508046 50.16570714558474, -0.350490840151906 1.4566550273448229 M0.7820355305448174 105.88709492888302 C1.0615762639208697 83.6699541505659, 1.0614245999022387 62.06397269689478, -0.5192312290892005 0.18934063520282507" stroke="#343a40" stroke-width="1" fill="none"></path></g><g transform="translate(888.9781746031749 1011.8750000000001) rotate(0 65.5 25)"><text x="65.5" y="18" font-family="Virgil, Segoe UI Emoji" font-size="20px" fill="#343a40" text-anchor="middle" style="white-space: pre;" direction="ltr">Backend for </text><text x="65.5" y="43" font-family="Virgil, Segoe UI Emoji" font-size="20px" fill="#343a40" text-anchor="middle" style="white-space: pre;" direction="ltr">Frontend</text></g><g transform="translate(831.3531746031749 1139.75) rotate(0 65 12.5)"><text x="0" y="18" font-family="Virgil, Segoe UI Emoji" font-size="20px" fill="#343a40" text-anchor="start" style="white-space: pre;" direction="ltr">External API</text></g><g transform="translate(40.103174603174864 1154.75) rotate(0 48 12.5)"><text x="0" y="18" font-family="Virgil, Segoe UI Emoji" font-size="20px" fill="#343a40" text-anchor="start" style="white-space: pre;" direction="ltr">Discovery</text></g><g transform="translate(823.8531746031749 547.2500000000001) rotate(0 45.5 12.5)"><text x="0" y="18" font-family="Virgil, Segoe UI Emoji" font-size="20px" fill="#343a40" text-anchor="start" style="white-space: pre;" direction="ltr">Reliability</text></g><g stroke-linecap="round"><g transform="translate(278.8531746031749 201.25) rotate(0 -35.252110044490564 -43.98270049579435)"><path d="M-0.8438216518610715 0.6850430142134427 C-12.629256362840533 -14.092224008714158, -59.090530497953296 -74.08933337020378, -70.73866090290248 -88.65044400580227 M0.9140332515724006 -0.000913348663598379 C-10.98240097148344 -14.675627810427297, -59.39480287833139 -72.95140660133833, -71.41825334055349 -87.71700185762718" stroke="#343a40" stroke-width="1" fill="none"></path></g><g transform="translate(278.8531746031749 201.25) rotate(0 -35.252110044490564 -43.98270049579435)"><path d="M-44.43652135894172 -71.62355191898078 C-55.19323569809177 -76.33443604038085, -59.607761776873375 -81.76538310094202, -71.91097561156377 -87.91374579483643 M-44.61980598714672 -72.95584000260115 C-52.90058991987199 -75.66290044956669, -58.44447952933916 -80.46907757696809, -71.33453678505495 -88.63515138758346" stroke="#343a40" stroke-width="1" fill="none"></path></g><g transform="translate(278.8531746031749 201.25) rotate(0 -35.252110044490564 -43.98270049579435)"><path d="M-60.27879761491944 -58.57969185322095 C-66.31865377360141 -67.06401461737703, -66.0148913983362 -76.37980078502385, -71.91097561156377 -87.91374579483643 M-60.46208224312444 -59.91197993684132 C-64.8899706316738 -65.71217445755657, -66.49435588166149 -73.76197281483722, -71.33453678505495 -88.63515138758346" stroke="#343a40" stroke-width="1" fill="none"></path></g></g><g stroke-linecap="round"><g transform="translate(401.3531746031749 198.75) rotate(0 32.20375433675946 -44.57856692913924)"><path d="M-0.27063681967556474 -0.7099225591868161 C10.389583314582707 -15.998821778222919, 53.90734758488834 -75.89972985498608, 64.67814549319446 -90.6888980101794 M1.7881401206552985 1.5317641519010068 C12.308829536587002 -13.094439408928157, 53.864461198002104 -74.00851124063135, 64.21737641349435 -89.5131442143023" stroke="#343a40" stroke-width="1" fill="none"></path></g><g transform="translate(401.3531746031749 198.75) rotate(0 32.20375433675946 -44.57856692913924)"><path d="M55.73454595160018 -58.86785954778922 C58.14224429150069 -69.85910357077756, 62.84145570588734 -81.14702098558323, 65.1749642200023 -89.79213626928627 M56.868579485344696 -59.935152166354484 C59.169827839468404 -70.21000605175848, 62.96783725433956 -79.8260050784506, 63.93550619829446 -89.670302128084" stroke="#343a40" stroke-width="1" fill="none"></path></g><g transform="translate(401.3531746031749 198.75) rotate(0 32.20375433675946 -44.57856692913924)"><path d="M38.73825882284652 -70.36769546934923 C47.36021938253019 -77.18370968237616, 58.173596786558846 -84.33472912967721, 65.1749642200023 -89.79213626928627 M39.87229235659103 -71.43498808791449 C47.84776077155454 -77.74384289829995, 57.402849329860935 -83.46455202812177, 63.93550619829446 -89.670302128084" stroke="#343a40" stroke-width="1" fill="none"></path></g></g><g stroke-linecap="round"><g transform="translate(186.35317460317492 395) rotate(0 48.63830046433958 -50.840101393908185)"><path d="M0.9574256312102081 -0.9073558520525693 C17.323022835577525 -17.73137050382793, 81.32025475216408 -84.41619162075222, 97.275665570423 -100.94725011102855 M0.0009353582561015816 1.2306783802807333 C16.3785748061041 -15.972201215475799, 80.84039462809761 -85.73424043342472, 96.86609453126788 -102.91088116809726" stroke="#343a40" stroke-width="1" fill="none"></path></g><g transform="translate(186.35317460317492 395) rotate(0 48.63830046433958 -50.840101393908185)"><path d="M83.69456372838872 -73.55977798926028 C88.31806211969207 -80.80719455962583, 92.34656140090672 -86.00284494706791, 98.65774521209299 -102.14086705900729 M85.45426009558545 -75.25643703548553 C88.42817992586991 -85.34875224320228, 94.50159333755403 -96.31232265229835, 97.72656435031443 -103.17224597174675" stroke="#343a40" stroke-width="1" fill="none"></path></g><g transform="translate(186.35317460317492 395) rotate(0 48.63830046433958 -50.840101393908185)"><path d="M68.65459805952054 -87.5211330476028 C76.63926407731643 -91.76808803122128, 84.02929889004213 -93.8432797600505, 98.65774521209299 -102.14086705900729 M70.41429442671728 -89.21779209382805 C78.9868125919857 -94.26412207786802, 90.58821041640118 -100.09615463359786, 97.72656435031443 -103.17224597174675" stroke="#343a40" stroke-width="1" fill="none"></path></g></g><g stroke-linecap="round"><g transform="translate(262.6031746031749 430) rotate(0 92.34175048582256 -1.9372988592833735)"><path d="M0.7974778901785611 -0.9447631906718015 C31.431198085471987 -1.6288828483472266, 153.48435206525028 -2.5997916371872027, 183.88602308146656 -2.9298345278948545" stroke="#343a40" stroke-width="1.5" fill="none" stroke-dasharray="8 9"></path></g><g transform="translate(262.6031746031749 430) rotate(0 92.34175048582256 -1.9372988592833735)"><path d="M27.295594745204607 -11.297390255373033 C19.63975984309265 -8.994101765747548, 11.03015480816832 -6.452751247158377, 1.0975895099341868 -2.25676596686244" stroke="#343a40" stroke-width="1.5" fill="none"></path></g><g transform="translate(262.6031746031749 430) rotate(0 92.34175048582256 -1.9372988592833735)"><path d="M27.528089053323693 9.2225012838757 C19.59998017137842 5.228237878246286, 10.91900515921958 1.4704914259945854, 1.0975895099341868 -2.25676596686244" stroke="#343a40" stroke-width="1.5" fill="none"></path></g><g transform="translate(262.6031746031749 430) rotate(0 92.34175048582256 -1.9372988592833735)"><path d="M154.21870472557572 7.823003523569884 C163.59762606064496 3.274182727282856, 172.22941443788085 -0.6633202669324625, 184.1861347012222 -4.241837304085493" stroke="#343a40" stroke-width="1.5" fill="none"></path></g><g transform="translate(262.6031746031749 430) rotate(0 92.34175048582256 -1.9372988592833735)"><path d="M154.02508323258687 -12.697291627896437 C163.66434951052267 -10.948178294915548, 172.35557487638218 -8.586460419365267, 184.1861347012222 -4.241837304085493" stroke="#343a40" stroke-width="1.5" fill="none"></path></g></g><g stroke-linecap="round"><g transform="translate(270.1031746031749 542.5000000000001) rotate(0 -35.063098503276706 -38.97785166986296)"><path d="M-0.3417647313326597 0.2746538411825896 C-12.129541539276639 -12.749642422671139, -58.32947979283829 -65.36908009735257, -69.78443227522075 -78.23035718090844" stroke="#343a40" stroke-width="1.5" fill="none" stroke-dasharray="8 9"></path></g><g transform="translate(270.1031746031749 542.5000000000001) rotate(0 -35.063098503276706 -38.97785166986296)"><path d="M-26.24941246491318 -13.679188735667585 C-17.954711486953812 -6.998055255344486, -5.745989619984844 -1.6628568987365941, -2.080139260739088 -0.8022551365196704" stroke="#343a40" stroke-width="1.5" fill="none"></path></g><g transform="translate(270.1031746031749 542.5000000000001) rotate(0 -35.063098503276706 -38.97785166986296)"><path d="M-10.880782104510548 -27.27790938252073 C-8.412985241101959 -15.49317157818086, -2.0215827026611386 -5.010598432338913, -2.080139260739088 -0.8022551365196704" stroke="#343a40" stroke-width="1.5" fill="none"></path></g><g transform="translate(270.1031746031749 542.5000000000001) rotate(0 -35.063098503276706 -38.97785166986296)"><path d="M-42.96980297928853 -63.542251754298235 C-54.61130039162254 -67.85279628032279, -62.35896461862981 -73.35912080636058, -71.52280680462718 -79.3072661586107" stroke="#343a40" stroke-width="1.5" fill="none"></path></g><g transform="translate(270.1031746031749 542.5000000000001) rotate(0 -35.063098503276706 -38.97785166986296)"><path d="M-58.346531595271514 -49.952688867426204 C-64.15806600372821 -59.3633482667292, -66.08534555821699 -70.01358119541389, -71.52280680462718 -79.3072661586107" stroke="#343a40" stroke-width="1.5" fill="none"></path></g></g><g stroke-linecap="round"><g transform="translate(482.6031746031749 543.7500000000001) rotate(0 27.036996053531766 -41.98849996812652)"><path d="M-0.08904642574489108 0.03998286835849285 C9.117138863479097 -14.064921000475705, 45.05269102739791 -69.7264164754501, 54.16303853280842 -84.01698280461144" stroke="#343a40" stroke-width="1.5" fill="none" stroke-dasharray="8 9"></path></g><g transform="translate(482.6031746031749 543.7500000000001) rotate(0 27.036996053531766 -41.98849996812652)"><path d="M6.66692449027021 -28.51632553655218 C6.979839950668996 -21.682123717566167, 2.7610556988435224 -15.815707765524465, 0.3266191430389882 0.6326536349952221" stroke="#343a40" stroke-width="1.5" fill="none"></path></g><g transform="translate(482.6031746031749 543.7500000000001) rotate(0 27.036996053531766 -41.98849996812652)"><path d="M23.90005254914753 -17.374543825704727 C20.528635701031487 -12.898406993446551, 12.682383118534728 -9.377268124315627, 0.3266191430389882 0.6326536349952221" stroke="#343a40" stroke-width="1.5" fill="none"></path></g><g transform="translate(482.6031746031749 543.7500000000001) rotate(0 27.036996053531766 -41.98849996812652)"><path d="M47.62902962347373 -54.06373502181141 C50.440791294702485 -59.53557598300255, 49.01946672442814 -65.98506468781858, 54.5787041015923 -83.42431203797472" stroke="#343a40" stroke-width="1.5" fill="none"></path></g><g transform="translate(482.6031746031749 543.7500000000001) rotate(0 27.036996053531766 -41.98849996812652)"><path d="M30.362204547609466 -65.15322347644017 C36.86512465634326 -68.27798185734659, 39.07836143325702 -72.39320089068596, 54.5787041015923 -83.42431203797472" stroke="#343a40" stroke-width="1.5" fill="none"></path></g></g><g stroke-linecap="round"><g transform="translate(162.60317460317486 1026.25) rotate(0 -3.7995468150824365 -108.99931084401902)"><path d="M-0.6033110808581114 -0.8291841018944979 C-1.6968778363118568 -37.14836994297802, -5.884380939727029 -181.14400823004542, -6.9957825493067505 -217.1694375861436" stroke="#343a40" stroke-width="1.5" fill="none" stroke-dasharray="8 9"></path></g><g transform="translate(162.60317460317486 1026.25) rotate(0 -3.7995468150824365 -108.99931084401902)"><path d="M-13.071117192388225 -29.948745830830955 C-8.040522531943505 -22.999021332495666, -4.803267696993332 -12.689720067915633, 1.0897598691284656 -2.60135729983449" stroke="#343a40" stroke-width="1.5" fill="none"></path></g><g transform="translate(162.60317460317486 1026.25) rotate(0 -3.7995468150824365 -108.99931084401902)"><path d="M7.441202124164711 -30.552698346852605 C7.064369156924986 -23.546777849178177, 4.890443416038019 -13.078153005777535, 1.0897598691284656 -2.60135729983449" stroke="#343a40" stroke-width="1.5" fill="none"></path></g><g transform="translate(162.60317460317486 1026.25) rotate(0 -3.7995468150824365 -108.99931084401902)"><path d="M2.7194047765130263 -190.54032530832657 C1.551671443921625 -198.40871160683255, -1.0629806337338494 -202.80599409119912, -5.302711599320173 -218.9416107840836" stroke="#343a40" stroke-width="1.5" fill="none"></path></g><g transform="translate(162.60317460317486 1026.25) rotate(0 -3.7995468150824365 -108.99931084401902)"><path d="M-17.792667397852465 -189.92803656969045 C-13.553090100349742 -197.85481921808423, -10.756626798647495 -202.41362438928996, -5.302711599320173 -218.9416107840836" stroke="#343a40" stroke-width="1.5" fill="none"></path></g></g><g stroke-linecap="round"><g transform="translate(600.1031746031749 1028.75) rotate(0 -3.58118031136695 -112.1548099923879)"><path d="M-0.603635449334979 0.31322515122592454 C-1.5073775282750528 -37.2206673650692, -5.433071091895302 -187.17467687812945, -6.5587251733988525 -224.6228451360017" stroke="#343a40" stroke-width="1.5" fill="none" stroke-dasharray="8 9"></path></g><g transform="translate(600.1031746031749 1028.75) rotate(0 -3.58118031136695 -112.1548099923879)"><path d="M-11.071949882204104 -28.115687068969375 C-10.657258862227193 -23.660677263961787, -7.98905421367305 -17.481260501909176, -1.7369758658111096 0.8379814319312573" stroke="#343a40" stroke-width="1.5" fill="none"></path></g><g transform="translate(600.1031746031749 1028.75) rotate(0 -3.58118031136695 -112.1548099923879)"><path d="M9.442316396593037 -28.649429917582832 C5.647792952283809 -24.188029863146927, 4.104201111213122 -17.899030032141177, -1.7369758658111096 0.8379814319312573" stroke="#343a40" stroke-width="1.5" fill="none"></path></g><g transform="translate(600.1031746031749 1028.75) rotate(0 -3.58118031136695 -112.1548099923879)"><path d="M5.003029300529165 -197.24249962643086 C0.6247315539239318 -204.35654023220553, -1.2300706468452178 -209.63535612640658, -7.692065589874983 -224.09808885529637" stroke="#343a40" stroke-width="1.5" fill="none"></path></g><g transform="translate(600.1031746031749 1028.75) rotate(0 -3.58118031136695 -112.1548099923879)"><path d="M-15.510260834387108 -196.67247311249832 C-15.679720054643285 -203.80035829939337, -13.322926178481625 -209.1962066839475, -7.692065589874983 -224.09808885529637" stroke="#343a40" stroke-width="1.5" fill="none"></path></g></g><g stroke-linecap="round"><g transform="translate(945.1031746031749 985.0000000000001) rotate(0 -3.6995885420590184 -93.31351373307405)"><path d="M-0.20937799103558064 -0.4850052785128355 C-1.4641881454735994 -31.31763682278494, -5.87419220097363 -154.9900665314247, -7.189799093082547 -186.1420221876353" stroke="#343a40" stroke-width="1.5" fill="none" stroke-dasharray="8 9"></path></g><g transform="translate(945.1031746031749 985.0000000000001) rotate(0 -3.6995885420590184 -93.31351373307405)"><path d="M-12.321069869242587 -27.75710746769765 C-7.887821798818214 -20.13750246519777, -6.2686340473022275 -11.091694975970704, 0.022232335060834885 -0.42295427843928335" stroke="#343a40" stroke-width="1.5" fill="none"></path></g><g transform="translate(945.1031746031749 985.0000000000001) rotate(0 -3.6995885420590184 -93.31351373307405)"><path d="M8.185903158633428 -28.521345401724183 C5.880331708751367 -20.686656266208317, 0.7679998956294574 -11.389983737175278, 0.022232335060834885 -0.42295427843928335" stroke="#343a40" stroke-width="1.5" fill="none"></path></g><g transform="translate(945.1031746031749 985.0000000000001) rotate(0 -3.6995885420590184 -93.31351373307405)"><path d="M3.3407434735245456 -157.850397477624 C0.8723028586442871 -168.5093786846436, -4.940939517152891 -177.70265085859756, -6.958188766986131 -186.07997118756174" stroke="#343a40" stroke-width="1.5" fill="none"></path></g><g transform="translate(945.1031746031749 985.0000000000001) rotate(0 -3.6995885420590184 -93.31351373307405)"><path d="M-17.165235265976513 -157.0599303239927 C-12.894932200874202 -167.9426072753682, -11.976981392315928 -177.3953543656172, -6.958188766986131 -186.07997118756174" stroke="#343a40" stroke-width="1.5" fill="none"></path></g></g><g stroke-linecap="round"><g transform="translate(263.8531746031749 810.0000000000001) rotate(0 23.575405521318316 43.6145379765332)"><path d="M-1.1223512280732393 0.5838696766644715 C7.074358647192519 15.132925296699007, 40.175994250302516 72.05178968595962, 48.273162270709875 86.41596943624317 M0.4892756478488445 -0.15520268842577933 C8.674986918816963 14.58022488032778, 40.03352236275871 72.74130605931083, 47.73102699920535 87.38427864149213" stroke="#343a40" stroke-width="1" fill="none"></path></g><g transform="translate(263.8531746031749 810.0000000000001) rotate(0 23.575405521318316 43.6145379765332)"><path d="M26.378565120057605 68.63370662816584 C28.462101951709155 71.98530358392966, 34.06045122344146 78.21036833855449, 47.70835568524897 89.01728265307844 M25.59980719304963 67.20981202629179 C30.12070867005973 71.0130844462515, 36.229363066633226 75.80809289531214, 47.41153394479304 87.13504910510034" stroke="#343a40" stroke-width="1" fill="none"></path></g><g transform="translate(263.8531746031749 810.0000000000001) rotate(0 23.575405521318316 43.6145379765332)"><path d="M44.48269206654139 58.97137823944716 C42.43278202083531 64.3219580600865, 43.9684097831815 72.71533225551669, 47.70835568524897 89.01728265307844 M43.703934139533416 57.54748363757311 C43.9617334889772 63.71106437370294, 45.78274832104325 70.79442296564523, 47.41153394479304 87.13504910510034" stroke="#343a40" stroke-width="1" fill="none"></path></g></g><g stroke-linecap="round"><g transform="translate(465.1031746031749 895.0000000000001) rotate(0 12.747585136815928 -42.626718280650664)"><path d="M-1.0144719589501618 0.02406951673328872 C3.445675696060062 -13.771808818106852, 21.8694099675864 -69.2281213036428, 26.509642232581974 -83.35979103557766 M0.6537915332615376 -1.0088979323208331 C5.0006204183399685 -15.12511964475115, 21.41285633161664 -71.44868319983283, 25.697908941060305 -85.27750607803463" stroke="#343a40" stroke-width="1" fill="none"></path></g><g transform="translate(465.1031746031749 895.0000000000001) rotate(0 12.747585136815928 -42.626718280650664)"><path d="M27.48068964355479 -54.89542647250005 C27.750492237605133 -62.739113982290945, 24.920582516242067 -70.83863606059514, 25.12428882844746 -86.49396201260387 M26.949042113170428 -56.05336565602579 C26.733186772918966 -64.8964418279631, 25.870002174887016 -75.11124475752005, 25.253499184139073 -85.38088242281228" stroke="#343a40" stroke-width="1" fill="none"></path></g><g transform="translate(465.1031746031749 895.0000000000001) rotate(0 12.747585136815928 -42.626718280650664)"><path d="M7.821917209968618 -60.78207821948764 C13.549082380234728 -66.81682493956234, 16.205209166104208 -73.27360017299414, 25.12428882844746 -86.49396201260387 M7.290269679584256 -61.94001740301338 C13.402738051328587 -68.7780772341271, 18.884994727783823 -77.09279189062126, 25.253499184139073 -85.38088242281228" stroke="#343a40" stroke-width="1" fill="none"></path></g></g><g stroke-linecap="round"><g transform="translate(503.8531746031749 990.0000000000001) rotate(0 14.185854106666511 20.618297652332103)"><path d="M0.3314149785786866 -0.6675690282136202 C5.14237792181472 6.057997251674533, 24.648875952636203 33.55777636878193, 29.32543910034001 40.67081251256168 M-0.9537308870069683 1.5963532866351309 C3.7093413126158215 8.447834611665458, 23.94779195881759 35.492310750614855, 28.67949916439131 41.90416433287785" stroke="#343a40" stroke-width="1" fill="none"></path></g><g transform="translate(503.8531746031749 990.0000000000001) rotate(0 14.185854106666511 20.618297652332103)"><path d="M6.577003829896849 29.02646053052857 C13.861890333201675 32.09179858631455, 23.195933174095046 36.75755435863913, 27.689827816728503 41.47854130154476 M7.3662479573566735 28.62973714369699 C13.533900029598449 31.893693119029336, 18.463829222461513 35.03791104314792, 28.373654483985156 42.47559644745663" stroke="#343a40" stroke-width="1" fill="none"></path></g><g transform="translate(503.8531746031749 990.0000000000001) rotate(0 14.185854106666511 20.618297652332103)"><path d="M20.38180661316118 18.771614542650735 C23.023582988476928 25.3443454885592, 27.687390366138974 33.47936816418377, 27.689827816728503 41.47854130154476 M21.171050740621006 18.374891155819153 C24.1029041540367 24.211300090792243, 25.753740909576308 29.791379537361028, 28.373654483985156 42.47559644745663" stroke="#343a40" stroke-width="1" fill="none"></path></g></g><g stroke-linecap="round"><g transform="translate(270.1031746031749 1028.75) rotate(0 7.267891973974201 -20.175529670389352)"><path d="M0.8930729795247314 0.7257946383208036 C3.1718876887112852 -5.976044884199897, 12.361911313608289 -32.612314147626364, 14.632986383512616 -39.31428146250546 M-0.09720243556424979 0.06123287810012701 C1.9074687071330847 -7.064704645543047, 11.225795884300023 -34.14020228690778, 13.492258771229535 -41.07685397909954" stroke="#343a40" stroke-width="1" fill="none"></path></g><g transform="translate(270.1031746031749 1028.75) rotate(0 7.267891973974201 -20.175529670389352)"><path d="M15.243158950405014 -20.335392363725934 C14.811117565388587 -28.634841246427424, 14.319228028220202 -36.53600687910778, 14.032669649366289 -42.90335543984547 M13.317537154936982 -20.025081401115987 C13.971998145281864 -26.534973573296735, 14.124837429859612 -33.98161406388045, 12.976171104144305 -41.14463185025379" stroke="#343a40" stroke-width="1" fill="none"></path></g><g transform="translate(270.1031746031749 1028.75) rotate(0 7.267891973974201 -20.175529670389352)"><path d="M1.390991396667273 -24.983176751701333 C6.257619681441874 -31.61952119825508, 11.029667088939304 -37.754490756870254, 14.032669649366289 -42.90335543984547 M-0.5346303988007595 -24.672865789091386 C4.9400790188951476 -29.660596196797655, 9.905153231104494 -35.49259910224178, 12.976171104144305 -41.14463185025379" stroke="#343a40" stroke-width="1" fill="none"></path></g></g><g stroke-linecap="round" transform="translate(787.6031746031749 10) rotate(0 186.25 158.125)"><path d="M0.5341230581355336 0.9168432603474909 C113.88544664341849 -2.093601835016202, 230.13972474801335 -1.7264803170052878, 371.87340383351057 -1.143368615490371 M372.2656642052468 -0.9878125342528083 C370.9609840613039 98.00590823899287, 369.76353383272436 194.7830924601899, 372.4056926835401 317.5739351630544 M372.2440465070044 315.4805116067296 C296.83956812936674 318.1736186764859, 222.3138982017661 318.94988855417887, 0.16407694811453852 316.19203043689106 M-0.33538039883854887 316.22642166440505 C-0.7347009671060183 236.85195327482853, -0.35515003966921954 156.19039009867578, 1.0639195269960173 0.9773676247575421" stroke="#343a40" stroke-width="1.5" fill="none" stroke-dasharray="8 9"></path></g><g transform="translate(811.3531746031749 16) rotate(0 63.5 37.5)"><text x="0" y="18" font-family="Virgil, Segoe UI Emoji" font-size="20px" fill="#343a40" text-anchor="start" style="white-space: pre;" direction="ltr">Key</text><text x="0" y="43" font-family="Virgil, Segoe UI Emoji" font-size="20px" fill="#343a40" text-anchor="start" style="white-space: pre;" direction="ltr"></text><text x="0" y="68" font-family="Virgil, Segoe UI Emoji" font-size="20px" fill="#343a40" text-anchor="start" style="white-space: pre;" direction="ltr">Predecessor </text></g><g stroke-linecap="round"><g transform="translate(940.1031746031749 80) rotate(0 44.983663581125484 -0.9052754939721126)"><path d="M-0.32559707053005693 0.703808443620801 C14.408231821407874 0.6949178461730299, 73.3554530950884 -0.24031365439304858, 88.03384413607418 -0.6897075629980463 M1.704325738102198 0.02770393118262282 C16.846953074311216 -0.2814832565933649, 75.57124492513637 -2.3328854090721323, 90.29292423278093 -2.514359431564917" stroke="#343a40" stroke-width="1" fill="none"></path></g><g transform="translate(940.1031746031749 80) rotate(0 44.983663581125484 -0.9052754939721126)"><path d="M63.54114289039724 7.011784549324812 C70.890507821617 3.6538321840676407, 76.237545885619 4.4535726022961635, 88.31016055308282 -4.499942139014711 M62.3529308263024 8.827238627231718 C74.22704208236271 3.6235458344849416, 84.92346417293685 0.5369829394798558, 89.69282338861376 -1.9822082251683968" stroke="#343a40" stroke-width="1" fill="none"></path></g><g transform="translate(940.1031746031749 80) rotate(0 44.983663581125484 -0.9052754939721126)"><path d="M63.02688305078259 -13.502979383101977 C70.40591643303648 -11.33615711595719, 75.89141342132388 -5.013037411137293, 88.31016055308282 -4.499942139014711 M61.838670986687745 -11.68752530519507 C73.82855796134687 -8.751765484613792, 84.7290673783028 -3.696912309758247, 89.69282338861376 -1.9822082251683968" stroke="#343a40" stroke-width="1" fill="none"></path></g></g><g transform="translate(1042.603174603175 64.75) rotate(0 47.5 12.5)"><text x="0" y="18" font-family="Virgil, Segoe UI Emoji" font-size="20px" fill="#343a40" text-anchor="start" style="white-space: pre;" direction="ltr">Successor</text></g><g transform="translate(798.8531746031749 123.5) rotate(0 53.5 25)"><text x="0" y="18" font-family="Virgil, Segoe UI Emoji" font-size="20px" fill="#343a40" text-anchor="start" style="white-space: pre;" direction="ltr">Alternative</text><text x="0" y="43" font-family="Virgil, Segoe UI Emoji" font-size="20px" fill="#343a40" text-anchor="start" style="white-space: pre;" direction="ltr">  A </text></g><g stroke-linecap="round"><g transform="translate(920.4315684488076 138.33850036886565) rotate(0 50.599036856927 -1.7864681949329224)"><path d="M-0.4216061543673276 0.64932253472507 C16.436061732036364 -0.028995844642705992, 84.44735171875602 -3.3094987880209454, 101.61967986822124 -4.22225892459087" stroke="#343a40" stroke-width="1.5" fill="none" stroke-dasharray="8 9"></path></g><g transform="translate(920.4315684488076 138.33850036886565) rotate(0 50.599036856927 -1.7864681949329224)"><path d="M28.339924388799464 -11.840122213004936 C18.457058186398793 -6.355346378532344, 8.052383267799943 -2.025613150395478, 0.8465777345001698 1.1538220576941967" stroke="#343a40" stroke-width="1.5" fill="none"></path></g><g transform="translate(920.4315684488076 138.33850036886565) rotate(0 50.599036856927 -1.7864681949329224)"><path d="M29.300966891214518 8.658570420780059 C19.117877551343984 7.181222952554208, 8.386954927638598 4.552209389939521, 0.8465777345001698 1.1538220576941967" stroke="#343a40" stroke-width="1.5" fill="none"></path></g><g transform="translate(920.4315684488076 138.33850036886565) rotate(0 50.599036856927 -1.7864681949329224)"><path d="M75.06095449190758 6.518867782297141 C83.98729850644676 4.311859848841337, 92.3623409201019 0.7554479727429015, 102.88786375708874 -3.717759401621743" stroke="#343a40" stroke-width="1.5" fill="none"></path></g><g transform="translate(920.4315684488076 138.33850036886565) rotate(0 50.599036856927 -1.7864681949329224)"><path d="M74.03215477779906 -13.976535934977859 C83.28172782976853 -9.222299005998561, 92.00601967297409 -5.821080588754222, 102.88786375708874 -3.717759401621743" stroke="#343a40" stroke-width="1.5" fill="none"></path></g></g><g transform="translate(1036.353174603175 121) rotate(0 58.5 25)"><text x="0" y="18" font-family="Virgil, Segoe UI Emoji" font-size="20px" fill="#343a40" text-anchor="start" style="white-space: pre;" direction="ltr">Alternative </text><text x="0" y="43" font-family="Virgil, Segoe UI Emoji" font-size="20px" fill="#343a40" text-anchor="start" style="white-space: pre;" direction="ltr">     B</text></g></svg>