<svg version="1.1" xmlns="http://www.w3.org/2000/svg" viewBox="0 0 813.6418653432279 485.73931447606526" width="813.6418653432279" height="485.73931447606526">
  <!-- svg-source:excalidraw -->
  
  <defs>
    <style>
      @font-face {
        font-family: "Virgil";
        src: url("https://excalidraw.com/Virgil.woff2");
      }
      @font-face {
        font-family: "Cascadia";
        src: url("https://excalidraw.com/Cascadia.woff2");
      }
    </style>
  </defs>
  <rect x="0" y="0" width="813.6418653432279" height="485.73931447606526" fill="#ffffff"></rect><g><g transform="translate(233.64186534322795 21.49493641100821) rotate(0 -109.7445416749269 223.09626671237876)"><path d="M0.3365199264138936 0.9533679250627756 C-36.15788548077768 74.8332907143794, -182.45770808734622 370.5895823779516, -218.88969093289228 444.46897835757585 M-0.9459458415582777 0.40828214038163413 C-37.60306523300086 74.96147114859895, -183.53727298547204 371.6523849461414, -219.82560327626766 445.78425128437584" stroke="#000000" stroke-width="1" fill="none"></path></g></g><g><g transform="translate(240.64186534322795 32.494936411008155) rotate(0 115.66858150722464 220.17793523816388)"><path d="M0.4247031267732382 0.044632470980286554 C38.6729890363353 73.22377294123794, 191.61208317078032 366.5167367354346, 229.82832142714415 439.9236096733436 M-0.8114664610102773 -0.9775394270941615 C37.79389572270836 72.31043085497492, 193.31854526873062 367.5086668933866, 232.1486294754595 441.33340990342197" stroke="#000000" stroke-width="1" fill="none"></path></g></g><g><g transform="translate(199.64186534322795 91.49493641100821) rotate(0 35.59856275927274 -1.3429231461137476)"><path d="M0.4935554679483176 -0.3840066667646169 C12.219711198036869 -0.687426228945454, 58.01320796969036 -1.8714284098396698, 69.81418860517442 -2.3018396254628897 M-0.7064666407182814 -1.6312141121551396 C11.415399558854602 -1.7145611962800225, 60.004023284825195 -0.835351536783079, 71.9035921592638 -0.9228801776096223" stroke="#000000" stroke-width="1" fill="none"></path></g></g><g><g transform="translate(180.64186534322795 138.4949364110082) rotate(0 57.807494270429004 -0.5571236754579729)"><path d="M-0.8180751744657755 0.2932533625513316 C18.650412632649147 0.33485727347433575, 96.83734621765714 0.4726058606058358, 116.43306371532381 0.41860239543020716 M0.953296629600227 -0.5983925674483179 C20.33471924663832 -0.9405788550898433, 96.4733341129745 -1.795699274353683, 115.7123767022416 -1.4842060957476497" stroke="#000000" stroke-width="1" fill="none"></path></g></g><g><g transform="translate(154.64186534322795 191.4949364110082) rotate(0 85.74305537380275 1.437982624862343)"><path d="M-0.5320733662694692 1.086536806449294 C28.312136745825413 1.1861910716940958, 143.4404798153788 1.1678348160038392, 172.01818411387504 1.1653608616441489 M1.389449387099594 0.611364684496075 C30.256348519232127 0.7927051871952911, 143.48061284950003 2.049524882628272, 171.6046853100322 2.264600565228611" stroke="#000000" stroke-width="1" fill="none"></path></g></g><g><g transform="translate(113.64186534322795 269.4949364110082) rotate(0 123.76189749797805 -0.3360050404216963)"><path d="M-0.19601632319390783 -1.103936893120408 C40.82863252994915 -1.37914682465295, 205.6208371921132 -1.6678995036830504, 247.06223218478263 -1.5902083579450845 M-1.7580636222101749 0.9308922926522794 C39.55650459002083 0.8030648952660463, 207.66815784902002 0.2575300451057655, 249.2818586181663 -0.36264249464496956" stroke="#000000" stroke-width="1" fill="none"></path></g></g><g><g transform="translate(85.64186534322795 326.4949364110082) rotate(0 155.133992899796 0.2536744630548924)"><path d="M0.6919979218393564 0.23168510757386684 C52.55417500374218 0.548272305354476, 258.85787029700975 1.2904402907937766, 310.67182769812644 1.1948162611573936 M-0.40384189853444696 -0.6922841562889517 C51.3154568625552 -0.6151209314726294, 257.63213333398727 -0.5485017683170736, 309.5514917760156 -0.3004799505136908" stroke="#000000" stroke-width="1" fill="none"></path></g></g><g><g transform="translate(48.64186534322795 407.4949364110082) rotate(0 200.21053559999916 2.714266397040319)"><path d="M-0.1042496625334024 0.5645398501306773 C66.61977708501121 1.4596705758323272, 333.2478453135739 4.941131524617473, 399.90310565792026 5.613213467970491 M-1.6181194647029042 -0.1846806738898159 C65.50050003649046 0.33726143100609374, 334.7518452342475 2.831302363264064, 402.03919066470115 3.8125757898762824" stroke="#000000" stroke-width="1" fill="none"></path></g></g><g><g transform="translate(10.641865343227948 471.4949364110082) rotate(0 230.97938586436211 1.9943750544264844)"><path d="M-0.6418653432279825 0.518017042055726 C76.59747410776716 1.1726560278485216, 385.2221538679054 2.689357658599814, 462.60063707195224 3.152100205793977 M1.2220166222378612 -0.2556279562041164 C78.34148799619327 0.5970642453307905, 384.44766577960297 3.494847217587133, 461.4429260710999 4.244378065057099" stroke="#000000" stroke-width="1" fill="none"></path></g></g><g transform="translate(223.64186534322795 61.49493641100821) rotate(0 16 12.5)"><text x="0" y="18" font-family="Virgil, Segoe UI Emoji" font-size="20px" fill="#000000" text-anchor="start" style="white-space: pre;" direction="ltr">reg</text></g><g transform="translate(229.64186534322795 108.49493641100821) rotate(0 8 12.5)"><text x="0" y="18" font-family="Virgil, Segoe UI Emoji" font-size="20px" fill="#000000" text-anchor="start" style="white-space: pre;" direction="ltr">L1</text></g><g transform="translate(227.64186534322795 151.4949364110082) rotate(0 13.5 12.5)"><text x="0" y="18" font-family="Virgil, Segoe UI Emoji" font-size="20px" fill="#000000" text-anchor="start" style="white-space: pre;" direction="ltr">L2</text></g><g transform="translate(228.64186534322795 222.4949364110082) rotate(0 13 12.5)"><text x="0" y="18" font-family="Virgil, Segoe UI Emoji" font-size="20px" fill="#000000" text-anchor="start" style="white-space: pre;" direction="ltr">L3</text></g><g transform="translate(132.64186534322795 284.4949364110082) rotate(0 106 12.5)"><text x="0" y="18" font-family="Virgil, Segoe UI Emoji" font-size="20px" fill="#000000" text-anchor="start" style="white-space: pre;" direction="ltr">Main Memory (DRAM) </text></g><g transform="translate(112.64186534322795 340.4949364110082) rotate(0 129.5 12.5)"><text x="0" y="18" font-family="Virgil, Segoe UI Emoji" font-size="20px" fill="#000000" text-anchor="start" style="white-space: pre;" direction="ltr">Local Secondary Storage </text></g><g transform="translate(211.64186534322795 378.4949364110082) rotate(0 53.5 12.5)"><text x="0" y="18" font-family="Virgil, Segoe UI Emoji" font-size="20px" fill="#000000" text-anchor="start" style="white-space: pre;" direction="ltr">Local Disk</text></g><g transform="translate(107.64186534322795 412.4949364110082) rotate(0 133.5 12.5)"><text x="0" y="18" font-family="Virgil, Segoe UI Emoji" font-size="20px" fill="#000000" text-anchor="start" style="white-space: pre;" direction="ltr">Remote Secondary Storage</text></g><g transform="translate(101.64186534322795 434.4949364110082) rotate(0 115.5 12.5)"><text x="0" y="18" font-family="Virgil, Segoe UI Emoji" font-size="20px" fill="#000000" text-anchor="start" style="white-space: pre;" direction="ltr">Distributed file system</text></g><g><g transform="translate(563.6418653432279 466.4949364110082) rotate(0 -1.1804478919320331 -227.6901914486475)"><path d="M-1.17185439504683 -0.9835033055394887 C-1.380801597740507 -76.77059119839842, -1.480793110560656 -379.0475732053009, -1.6754012477025753 -454.6736278492585 M0.4137833182141186 1.1145535137131812 C0.05850975601001984 -75.03223430671419, -2.7148673089780218 -380.1732050099534, -2.7746791020781165 -456.4949364110082" stroke="#000000" stroke-width="1" fill="none"></path></g><g transform="translate(563.6418653432279 466.4949364110082) rotate(0 -1.1804478919320331 -227.6901914486475)"><path d="M6.001248017650746 -428.8409725817507 C5.82684607958668 -437.5010170940702, 2.9579970219585494 -443.11995181409924, -2.183039264828003 -457.44835251078007 M6.812157928709589 -427.4086558603337 C3.8261451989086277 -439.9856117761795, -0.04725372397989691 -450.36540639654334, -3.3243897585943705 -455.57803710710255" stroke="#000000" stroke-width="1" fill="none"></path></g><g transform="translate(563.6418653432279 466.4949364110082) rotate(0 -1.1804478919320331 -227.6901914486475)"><path d="M-14.519651795263133 -428.72839703293926 C-9.258999119739363 -437.2178620596979, -6.692747689705173 -442.86661318279994, -2.183039264828003 -457.44835251078007 M-13.70874188420429 -427.29608031152225 C-8.844611439195761 -439.8845827108619, -4.867280560094446 -450.30744562862424, -3.3243897585943705 -455.57803710710255" stroke="#000000" stroke-width="1" fill="none"></path></g></g><g transform="translate(587.6418653432279 57.49493641100821) rotate(0 108 50)"><text x="0" y="18" font-family="Virgil, Segoe UI Emoji" font-size="20px" fill="#000000" text-anchor="start" style="white-space: pre;" direction="ltr">As we go up</text><text x="0" y="43" font-family="Virgil, Segoe UI Emoji" font-size="20px" fill="#000000" text-anchor="start" style="white-space: pre;" direction="ltr">Memory gets </text><text x="0" y="68" font-family="Virgil, Segoe UI Emoji" font-size="20px" fill="#000000" text-anchor="start" style="white-space: pre;" direction="ltr">Fast, smaller and </text><text x="0" y="93" font-family="Virgil, Segoe UI Emoji" font-size="20px" fill="#000000" text-anchor="start" style="white-space: pre;" direction="ltr">more costly (per byte)</text></g></svg>