<svg version="1.1" xmlns="http://www.w3.org/2000/svg" viewBox="0 0 1010.6666666666665 804.5555555555554" width="3031.9999999999995" height="2413.666666666666">
  <!-- svg-source:excalidraw -->
  
  <defs>
    <style>
      @font-face {
        font-family: "Virgil";
        src: url("https://excalidraw.com/Virgil.woff2");
      }
      @font-face {
        font-family: "Cascadia";
        src: url("https://excalidraw.com/Cascadia.woff2");
      }
    </style>
  </defs>
  <rect x="0" y="0" width="1010.6666666666665" height="804.5555555555554" fill="#ffffff"></rect><g stroke-linecap="round" transform="translate(10 41.55555555555547) rotate(0 495.33333333333326 376.5)"><path d="M0.06852812841534615 0.7212867371737958 C280.1212119995306 -0.5471588552743192, 561.7112501492103 -0.6180614650994535, 991.2597941803434 0.4582126967608929 M0.019304126128554346 -0.17052764855325223 C295.01294524918 0.27138359977801657, 590.4284548872461 -0.03549240396420146, 990.7774077868709 -0.015386616811156273 M989.9020211624601 0.19686645194888117 C992.9813246230021 163.64391964590178, 993.2321516255275 328.384856354259, 991.1599465059736 752.9111231915653 M990.7974029994258 0.37351862229406835 C993.0815853975029 172.24524778919294, 992.9826514265748 343.8245090758428, 990.8691679811725 752.7409525159746 M990.3271429705121 752.6516629330814 C614.3075532273699 756.139659806187, 238.0364994034171 755.7293849429439, 0.1530215509235859 752.3032846324146 M990.8142272806415 752.6983971837908 C785.763621410479 755.9982631444236, 581.7914026100187 756.0971938728591, -0.12306370176374913 753.3920521620661 M-0.4253203146159649 753.5630931727588 C0.6361607943437992 536.6729936772026, 0.002946964349597514 320.7366898054257, -0.3273299686610699 -0.5449172385036946 M-0.08487390913069248 752.8515323523432 C-1.57571020520851 499.1291505324654, -1.4212834278456863 244.92848540265112, 0.013379567489027978 0.24510226286947728" stroke="#000000" stroke-width="1" fill="none"></path></g><g transform="translate(23 761.5555555555554) rotate(0 107 12.5)"><text x="0" y="18" font-family="Virgil, Segoe UI Emoji" font-size="20px" fill="#000000" text-anchor="start" style="white-space: pre;" direction="ltr">Microservice Patterns</text></g><g stroke-linecap="round"><g transform="translate(11.888888888888971 227.5555555555555) rotate(0 493.52072933956566 -1.3475858459207757)"><path d="M-0.9022662866860628 -0.49592462293803685 C163.3146017677199 -0.7339963188381128, 821.1702522742803 -2.132097843096223, 985.8499441964841 -2.1992470689035257 M0.8249051834642889 -1.801888995319605 C165.3427085992556 -1.8591312592090303, 823.6665204574967 -1.6006258017128376, 987.9437249658174 -1.2077305839128099" stroke="#000000" stroke-width="1" fill="none"></path></g></g><g stroke-linecap="round" transform="translate(22 51.55555555555547) rotate(0 78.5 48)"><path d="M0.4366449397057295 1.287884535267949 C62.256786099914464 0.18951271395198988, 127.21574981566519 -2.139752940135077, 158.6685930173844 0.6535421628504992 M155.20376062579453 1.72916772775352 C158.09038664855063 24.798405821248892, 156.93239517964423 48.034176431223756, 158.03050643391907 95.57607170753181 M158.64474400691688 97.43795788474381 C105.18950946470721 94.52559110944159, 55.646229802258304 94.90588012759574, -1.4714848715811968 97.95376390404999 M0.031062902882695198 95.4373850505799 C-1.5224593629688026 75.1479092489928, -1.0465187182277442 57.41919203810394, 1.3435894269496202 0.4052282851189375" stroke="#000000" stroke-width="1.5" fill="none" stroke-dasharray="1.5 7"></path></g><g transform="translate(31 77.55555555555547) rotate(0 68.5 12.5)"><text x="0" y="18" font-family="Virgil, Segoe UI Emoji" font-size="20px" fill="#000000" text-anchor="start" style="white-space: pre;" direction="ltr">Decomposition</text></g><g stroke-linecap="round" transform="translate(196 56.55555555555547) rotate(0 86 29)"><path d="M1.572846619412303 -1.1208343487232924 C55.892551966756585 0.4718765297159553, 113.07941238917411 0.9650844016298652, 173.34179916791618 1.9876344818621874 M172.29406708665192 -1.0876602251082659 C173.1921045637317 18.68136111069471, 173.43269746067003 40.94290373250843, 170.52945661731064 57.400374202057726 M171.28357210569084 59.30911380238832 C125.24963034391402 58.37772212613375, 78.79542910642921 58.73581914294512, -1.5380229074507952 56.09623444266618 M1.5119009036570787 58.96852043084801 C-0.7582037060149014 43.84663352426142, 0.9181401522271335 27.17594710290432, 0.7010276932269335 -0.6922202426940203" stroke="#000000" stroke-width="1.5" fill="none" stroke-dasharray="1.5 7"></path></g><g transform="translate(214 62.55555555555547) rotate(0 60 25)"><text x="0" y="18" font-family="Virgil, Segoe UI Emoji" font-size="20px" fill="#000000" text-anchor="start" style="white-space: pre;" direction="ltr">Database</text><text x="0" y="43" font-family="Virgil, Segoe UI Emoji" font-size="20px" fill="#000000" text-anchor="start" style="white-space: pre;" direction="ltr">Architecture</text></g><g stroke-linecap="round" transform="translate(196 128.5555555555555) rotate(0 87.5 37.5)"><path d="M0.657628146931529 0.36828053183853626 C52.56512103928254 -2.46540031558834, 101.32792818639429 -1.3964516294654459, 176.9588187020272 -1.8624344449490309 M175.78163701482117 -1.599657567217946 C174.40566058713011 18.01062065223232, 175.88471402483992 34.00001683738083, 173.29100191779435 75.95357385091484 M176.01243856362998 74.42190498299897 C104.09605613024905 75.17244381061755, 36.790542150847614 75.9728587900754, 1.9807719867676497 76.84457326121628 M-0.5713108759373426 73.25270762853324 C0.7833136257249862 53.6708668298088, 1.9123514231760055 33.21979194600135, -0.09050851874053478 -0.9367081243544817" stroke="#000000" stroke-width="1.5" fill="none" stroke-dasharray="1.5 7"></path></g><g transform="translate(244 153.5555555555555) rotate(0 39.5 12.5)"><text x="39.5" y="18" font-family="Virgil, Segoe UI Emoji" font-size="20px" fill="#000000" text-anchor="middle" style="white-space: pre;" direction="ltr">Querying</text></g><g stroke-linecap="round" transform="translate(402 63.55555555555547) rotate(0 119.5 69.5)"><path d="M1.5207387767527356 0.46447183130373804 C81.16588508304926 0.22305606366946584, 160.81666114762368 -0.9128110235832941, 238.65098312902995 -1.0628697944682135 M237.36374449916184 0.31071904115378857 C238.84408777284435 54.05490608373657, 238.94429790305904 104.44292056467384, 240.11353260464966 138.3323590438813 M238.89592180811894 138.2139005093957 C162.18792027009872 137.21479165367805, 87.16827766560051 139.41417970171125, 0.8671938145236745 140.6567392722941 M-1.368149695917964 137.04602834396064 C-1.21115550163202 104.62661461001261, -1.7780386483948678 69.98744188863783, 0.7143429536372423 -1.9512849766761065" stroke="#000000" stroke-width="1.5" fill="none" stroke-dasharray="1.5 7"></path></g><g transform="translate(429 105.55555555555547) rotate(0 87 25)"><text x="0" y="18" font-family="Virgil, Segoe UI Emoji" font-size="20px" fill="#000000" text-anchor="start" style="white-space: pre;" direction="ltr">Maintaining</text><text x="0" y="43" font-family="Virgil, Segoe UI Emoji" font-size="20px" fill="#000000" text-anchor="start" style="white-space: pre;" direction="ltr">Data consistency</text></g><g stroke-linecap="round" transform="translate(661 66.55555555555547) rotate(0 93 38)"><path d="M1.8753115553408861 -0.8359121400862932 C46.567796676792206 2.4029330559261144, 87.81100392043591 -0.07237911744043224, 186.25166177935898 -0.03424856252968311 M184.12281408719718 -1.6411969047039747 C187.05467274349184 19.94041015803814, 185.30460127752275 36.43370125703514, 186.18418416194618 74.75368130393326 M185.36911583133042 74.5902941506356 C140.05187921952455 78.88896363584325, 94.63625584319233 76.55123424140737, 0.17478925175964832 77.2519716899842 M1.4717365186661482 74.19349253363907 C-1.6418925732001663 45.42804270461201, 0.5292491108551621 14.491574275121089, 1.1815116684883833 0.7497496027499437" stroke="#000000" stroke-width="1.5" fill="none" stroke-dasharray="1.5 7"></path></g><g transform="translate(719.5 92.05555555555547) rotate(0 34.5 12.5)"><text x="34.5" y="18" font-family="Virgil, Segoe UI Emoji" font-size="20px" fill="#000000" text-anchor="middle" style="white-space: pre;" direction="ltr">Testing</text></g><g stroke-linecap="round"><g transform="translate(14 405.5555555555555) rotate(0 490.4121348182454 -2.5693596931649836)"><path d="M0.5066651154309512 -1.1682130325585602 C164.26400454940483 -2.352786085022319, 817.7493644849501 -5.4088989988606615, 981.510744064798 -5.971590566339069 M-0.686474428307265 0.8328711800090969 C162.96726853352249 0.29299125839612994, 816.4132700397552 -3.623863009073232, 980.3467689181804 -4.855892951285564" stroke="#000000" stroke-width="1" fill="none"></path></g></g><g stroke-linecap="round" transform="translate(20 286.5555555555555) rotate(0 89 34.5)"><path d="M-0.9489387255162001 1.7787806075066328 C40.171115565486254 -1.6246835516951978, 81.52054188102484 0.02030266055837271, 179.34517234750092 0.8143862169235945 M176.92914768867195 0.888079883530736 C178.83167094352655 17.44739374155179, 177.09478116395883 38.108760288171474, 177.21560969762504 69.6957140583545 M177.33568853326142 70.02118906192482 C136.9787417864427 66.61331898009405, 91.75479255244136 68.97077810799703, 0.3412883300334215 67.32897904329002 M0.04880109243094921 68.67753273434937 C-2.1901027845125647 55.9307996972464, -0.9133111523371189 41.63115108702331, -0.05142703838646412 1.5654300469905138" stroke="#000000" stroke-width="1.5" fill="none" stroke-dasharray="1.5 7"></path></g><g transform="translate(35 302.5555555555555) rotate(0 70 25)"><text x="0" y="18" font-family="Virgil, Segoe UI Emoji" font-size="20px" fill="#000000" text-anchor="start" style="white-space: pre;" direction="ltr">Cross-Cutting</text><text x="0" y="43" font-family="Virgil, Segoe UI Emoji" font-size="20px" fill="#000000" text-anchor="start" style="white-space: pre;" direction="ltr">concerns</text></g><g stroke-linecap="round" transform="translate(213 285.5555555555555) rotate(0 74.5 37)"><path d="M1.4475412648171186 -1.735606012865901 C45.107887062523524 -0.9016958291549237, 90.33051732983442 -2.447403591396287, 149.37965795211494 -1.5309934597462416 M149.5061405915767 -0.08750400133430958 C149.54028446393087 25.880082321353257, 148.64033819155767 56.007975574582815, 149.47030323930085 72.00766429118812 M148.91254111938179 72.2723736781627 C106.3254690251313 74.76901335713454, 59.64021997470407 74.89001358744689, 0.2910365145653486 74.62359458394349 M-1.792415438219905 72.31438168697059 C1.6991547715477644 45.37754495348781, -0.754237316865474 17.811647474765778, -0.7796058636158705 -0.35464260168373585" stroke="#000000" stroke-width="1.5" fill="none" stroke-dasharray="1.5 7"></path></g><g transform="translate(235 308.5555555555555) rotate(0 39 12.5)"><text x="0" y="18" font-family="Virgil, Segoe UI Emoji" font-size="20px" fill="#000000" text-anchor="start" style="white-space: pre;" direction="ltr">Security</text></g><g stroke-linecap="round" transform="translate(380.55555555555554 244.77777777777771) rotate(0 142.99999999999994 20.5)"><path d="M0.056052212737194455 -0.009658162886766346 C96.80426547565108 1.1685760079531822, 194.83912850576849 1.4868633145290766, 285.40019266526633 1.3863706725879872 M287.3234296124428 -0.7291777711361647 C287.57716488122 8.88580574663356, 283.7729971933271 19.929441074095667, 286.7029797714203 42.53654623217881 M284.8027431748967 39.55409144133589 C218.94050842886148 43.6174394756283, 153.6107418420464 44.37297553030677, 0.78695941784722 42.5057021031496 M1.7252428214997053 40.19623661227524 C1.4736908365879207 30.048441247176378, 0.581825165906921 18.648938805051145, -1.398535342887044 -0.6995365004986525" stroke="#000000" stroke-width="1.5" fill="none" stroke-dasharray="1.5 7"></path></g><g transform="translate(405.55555555555554 254.44444444444434) rotate(0 118.5 12.5)"><text x="0" y="18" font-family="Virgil, Segoe UI Emoji" font-size="20px" fill="#000000" text-anchor="start" style="white-space: pre;" direction="ltr">Transactional Messaging</text></g><g stroke-linecap="round" transform="translate(383.55555555555554 299.2222222222222) rotate(0 143 33.5)"><path d="M1.1383339291050396 -0.9219289706293187 C63.22123139609667 -0.22029683468485456, 127.18459389389503 0.8269593385415734, 285.8741304189133 1.3951857633810199 M284.4507357496768 -0.5346273500472307 C286.715245007379 25.136234205309304, 285.05279225002045 49.23028110917658, 285.2582383174449 65.42182138375938 M286.82739859869633 68.44206487138177 C203.94478554894087 65.00749199321685, 123.0325519008662 66.65964253612636, 0.41165372695293045 65.8277449449101 M-1.495401380583644 66.47995784692466 C1.1380022982228546 41.33283026209101, 0.3146208146680146 19.973817224986846, -0.5242006164044142 0.3120455425232649" stroke="#000000" stroke-width="1.5" fill="none" stroke-dasharray="1.5 7"></path></g><g transform="translate(421.2222222222223 320.11111111111103) rotate(0 97 12.5)"><text x="0" y="18" font-family="Virgil, Segoe UI Emoji" font-size="20px" fill="#000000" text-anchor="start" style="white-space: pre;" direction="ltr">Communication Style</text></g><g stroke-linecap="round" transform="translate(680.2222222222222 299.00000000000006) rotate(0 70 31.666666666666657)"><path d="M-1.3666449766606092 -1.31966838426888 C33.38173272088171 1.1695785785093902, 69.15953127108516 1.856778230704367, 138.7853228468448 -1.6808599550276995 M141.34230300597847 -1.6915984135121107 C140.5332185139569 14.758596825413402, 140.7718917837056 32.25151858106255, 138.78201666288078 62.059667251383246 M139.71352213807404 62.760460305338086 C104.79415832459927 61.459300144327166, 73.44065335206687 64.03890435279655, 1.6192150134593248 64.46124802840251 M1.8269390147179365 63.50651278284687 C-0.8757892526996632 38.07061476105202, 0.7674345694171886 14.155287494262055, -1.697430046275258 -0.6457637529820204" stroke="#000000" stroke-width="1.5" fill="none" stroke-dasharray="1.5 7"></path></g><g transform="translate(694.666666666667 322.22222222222234) rotate(0 45.5 12.5)"><text x="0" y="18" font-family="Virgil, Segoe UI Emoji" font-size="20px" fill="#000000" text-anchor="start" style="white-space: pre;" direction="ltr">Reliability</text></g><g stroke-linecap="round" transform="translate(844.6666666666667 164.5555555555556) rotate(0 71.1111111111112 89.44444444444443)"><path d="M-0.03432577662169933 -0.9395633060485125 C35.214845937366334 0.8055794584668339, 74.87423684385925 0.8610938537038029, 143.0814471395895 -0.3540137726813555 M141.09998575991244 0.5237278360873461 C141.57394518813965 49.13544843790845, 139.64119931421158 97.86991264629694, 144.17973886078448 178.17454891920914 M141.0157652052328 178.0022217844509 C112.79212280963044 178.46879098030425, 82.9116219698142 179.40859225603438, 0.08138269372284412 179.31289758429756 M-1.010759862139821 180.49958353758683 C1.7841415414897104 132.87737699194497, 0.046656669148554375 83.12724266615177, 1.164541868492961 1.6005340237170458" stroke="#000000" stroke-width="1.5" fill="none" stroke-dasharray="1.5 7"></path></g><g transform="translate(852.4444444444446 256.66666666666674) rotate(0 62 12.5)"><text x="0" y="18" font-family="Virgil, Segoe UI Emoji" font-size="20px" fill="#000000" text-anchor="start" style="white-space: pre;" direction="ltr">Observability</text></g><g stroke-linecap="round" transform="translate(382.44444444444446 372.33333333333337) rotate(0 143.8888888888889 139.44444444444443)"><path d="M-0.8817301390985882 -0.9691924279595574 C76.67100782703358 1.3155023522187903, 152.19755397876983 0.8921516838531927, 288.84631135510074 1.2979349535403286 M288.2524297034219 -1.1362092334829605 C286.34971273486786 62.78364212619413, 287.3747105589854 125.01298640469065, 286.9206123026056 277.7251168507569 M289.2458572747489 278.847639179266 C207.55704782223648 279.7756857769925, 129.75632825003032 278.3859343565936, 0.07420190156012399 279.26804709763496 M1.0631303852699436 278.0277562543376 C1.5247464019406962 189.06132765177915, 0.5006000945694374 100.87770888344544, 1.237180820455972 -0.3177997697705068" stroke="#000000" stroke-width="1.5" fill="none" stroke-dasharray="1.5 7"></path></g><g transform="translate(456.8888888888889 484.4444444444445) rotate(0 48 12.5)"><text x="0" y="18" font-family="Virgil, Segoe UI Emoji" font-size="20px" fill="#000000" text-anchor="start" style="white-space: pre;" direction="ltr">Discovery</text></g><g stroke-linecap="round" transform="translate(676.888888888889 446.77777777777766) rotate(0 83.88888888888886 117.77777777777783)"><path d="M0.5275203008204699 -0.06755909509956837 C37.91929269281939 2.8638318759182257, 78.62198007810444 1.9740127903202338, 167.813932467045 1.2230056207627058 M167.19411835179505 0.049368390764724455 C165.8162794548853 67.82189779554609, 165.33047734943406 133.93599696791702, 167.29749548697944 235.26805643284197 M167.985234785618 233.71278101350708 C111.18160886493405 237.49348641208692, 55.389398425817475 234.80198008588835, 1.9622480887919664 235.2330496325676 M1.3473284659184699 235.12233390602944 C3.2563101582742764 161.51112041693872, 1.7323541612787086 86.36077910937802, -1.6030016399363984 0.4562386300976387" stroke="#000000" stroke-width="1.5" fill="none" stroke-dasharray="1.5 7"></path></g><g transform="translate(700.2222222222224 536.6666666666666) rotate(0 41.5 25)"><text x="0" y="18" font-family="Virgil, Segoe UI Emoji" font-size="20px" fill="#000000" text-anchor="start" style="white-space: pre;" direction="ltr">External</text><text x="0" y="43" font-family="Virgil, Segoe UI Emoji" font-size="20px" fill="#000000" text-anchor="start" style="white-space: pre;" direction="ltr">API</text></g><g stroke-linecap="round" transform="translate(29.111111111111143 450.11111111111114) rotate(0 163.33333333333334 128.33333333333331)"><path d="M0.2030122329120971 -1.2973931001596188 C86.09387466019373 0.720552253594251, 169.83497202549796 0.9019029886131004, 325.76144785671744 -0.937703060020063 M327.3828020840709 -1.2094184814595916 C326.7930865909262 56.28213369520891, 326.2678812455233 110.65909596028303, 328.26775486707623 257.7924206367846 M327.3776442834819 257.95948795525743 C212.42631390567732 255.93651977840443, 100.34874059834162 255.03159870487912, -0.01139755211040005 257.5722287455458 M0.49042838938108463 257.4549144810009 C1.2528020625832184 162.08403827481965, 2.48949633205999 67.75809228436327, 0.38524552874401585 1.517070002388742" stroke="#000000" stroke-width="1.5" fill="none" stroke-dasharray="1.5 7"></path></g><g transform="translate(89.11111111111114 582.2222222222222) rotate(0 57 12.5)"><text x="0" y="18" font-family="Virgil, Segoe UI Emoji" font-size="20px" fill="#000000" text-anchor="start" style="white-space: pre;" direction="ltr">Deployment</text></g><g transform="translate(36.888888888888914 412.22222222222223) rotate(0 119 12.5)"><text x="0" y="18" font-family="Virgil, Segoe UI Emoji" font-size="20px" fill="#000000" text-anchor="start" style="white-space: pre;" direction="ltr">Infrastructure patterns</text></g><g transform="translate(25.77777777777777 234.44444444444446) rotate(0 129.00000000000003 12.5)"><text x="0" y="18" font-family="Virgil, Segoe UI Emoji" font-size="20px" fill="#000000" text-anchor="start" style="white-space: pre;" direction="ltr">Application Infra patterns</text></g><g transform="translate(40.22222222222223 10) rotate(0 97.99999999999997 12.499999999999993)"><text x="0" y="18" font-family="Virgil, Segoe UI Emoji" font-size="20px" fill="#000000" text-anchor="start" style="white-space: pre;" direction="ltr">Application patterns</text></g><g stroke-linecap="round" transform="translate(365.7777777777778 237.8888888888889) rotate(0 244.44444444444446 270)"><path d="M-0.5764295867478436 0.6846020948332733 C116.2585910268136 -2.5201126349476706, 232.165474110876 -1.1907500792079109, 489.6699804539964 -0.30827669558904686 M489.5986537859672 0.26134686544537544 C487.6514621819639 123.69021704532206, 488.8431305255079 246.7903282225132, 488.4209488556617 539.2666560895741 M489.238580461539 539.5275433937464 C295.8062809519843 539.9172772282816, 103.64653293331638 539.4007620643825, -0.7109775890512054 540.3240629092513 M0.471379005163908 540.3359582670033 C-0.7026382803171873 418.89099665693936, -0.04089776270091541 298.89747623950245, -0.7172031529247761 0.6866051681339741" stroke="#364fc7" stroke-width="1.5" fill="none" stroke-dasharray="8 9"></path></g><g transform="translate(416.8888888888889 737.7777777777777) rotate(0 114.5 12.5)"><text x="0" y="18" font-family="Virgil, Segoe UI Emoji" font-size="20px" fill="#364fc7" text-anchor="start" style="white-space: pre;" direction="ltr">Communication patterns</text></g></svg>