<svg version="1.1" xmlns="http://www.w3.org/2000/svg" viewBox="0 0 929 563" width="929" height="563">
  <!-- svg-source:excalidraw -->
  
  <defs>
    <style>
      @font-face {
        font-family: "Virgil";
        src: url("https://excalidraw.com/Virgil.woff2");
      }
      @font-face {
        font-family: "Cascadia";
        src: url("https://excalidraw.com/Cascadia.woff2");
      }
    </style>
  </defs>
  <rect x="0" y="0" width="929" height="563" fill="#ffffff"></rect><g stroke-linecap="round" transform="translate(93 18) rotate(0 111.5 68.5)"><path d="M0.03139390610011369 -1.0669346414120748 C53.918228368700746 -2.4252673939601372, 106.76906740145061 -1.8059816493203114, 223.1442741685498 -1.2199683322484567 M0.22575045640179736 -0.7920838288384757 C49.30159147328875 -1.6406708043678087, 98.95024232598732 -0.8092278542637868, 223.83029212652698 0.8199131834608949 M223.97940633259714 0.9230807963758707 C222.2738946658652 35.05269738817588, 225.68866938176564 67.87041860949249, 221.36124268732965 136.54576008953154 M223.18290963489562 -0.7690139533951879 C224.56906640403903 49.8013868519105, 224.07023188346065 101.14942418523133, 222.22263043839484 136.5938917575404 M221.37507248335928 136.71784743545626 C140.37740811631363 137.22763253529848, 55.96740819529617 137.57065874837397, 1.1642771489492252 138.3714345280519 M222.88989068325913 136.49388840126144 C167.1222153669366 135.65926118871147, 110.32613650707998 136.14324242635058, -0.3828031669602431 137.3882972621036 M-1.52280249632895 137.800699705258 C-0.6852116377931088 105.55214182427153, 0.684156736554578 74.25157626811415, 1.8517210837453604 0.4284334722906351 M0.7281243475154042 136.29037891607732 C-1.4587738730106503 88.8926132547669, -1.7106925763282925 43.176719961315385, -0.9621105222031474 -0.037017268128693104" stroke="#000000" stroke-width="1" fill="none"></path></g><g stroke-linecap="round" transform="translate(658 10) rotate(0 118.5 74)"><path d="M1.1856141481516569 1.5523022286343364 C54.578506045499864 0.8194443632484177, 110.07789398881671 -0.025483373561217257, 238.2207767760412 -1.189754115485975 M0.7318806282455339 -0.8065395598281516 C68.24056217952496 0.01621117756461654, 136.87739066302026 0.7580107338882878, 237.49187267448218 0.7852971298948153 M235.30067914165556 0.0828468557447195 C235.16531020145862 56.89929301664233, 234.79057740908115 113.28114406950772, 237.0106482449919 146.00143400393426 M237.84840549807996 -0.6182021824643016 C237.33738052465023 38.87072445508093, 235.96579888083042 77.88714456949384, 236.65690885763615 148.64746695477515 M238.00517284156348 147.75532311093968 C168.0123367186879 147.80388969777357, 99.42696787049186 146.62362373246663, 0.580395439222309 148.20203870007742 M236.23711145606507 147.55492291709626 C144.72560682005846 150.2626349784161, 52.83423601597477 149.94951962208413, -0.019994416713772712 148.5738756094773 M1.2535429541021585 149.7719374652952 C1.433058701492846 93.50245418548585, 0.008944653011858428 33.599034977331755, 0.6239620391279459 -0.7284092549234629 M0.8200965700671077 148.8815337093547 C1.71532444819808 111.37221490424126, 0.9708809421956539 73.65900529865175, -0.9880325319245458 0.6816514702513814" stroke="#000000" stroke-width="1" fill="none"></path></g><g stroke-linecap="round" transform="translate(329 393) rotate(0 159.5 80)"><path d="M1.1508001839080406 1.237011825038497 C79.78267388620232 0.3971588289129279, 157.79988048708822 -1.0516658527434803, 317.6135437447899 0.9565271529696627 M-0.3697106946803964 0.22346988258211983 C95.9750710128699 1.375849334461888, 190.6567035965028 1.6300221188505017, 318.93983783654977 0.6388800926571406 M319.9032517429441 0.8648836556822062 C321.3433017175645 53.54973162151873, 320.1958777945489 102.00068714655936, 319.2820859309286 160.56997185386717 M318.57960185129195 0.9609637139365077 C318.3699116514996 55.9184653190896, 317.02513177264484 112.93979729991408, 318.1459397049621 159.65549822431058 M318.3777136363152 159.5758761715098 C206.13267525200484 158.96532753836263, 92.50548199372747 159.4027591869095, -0.5360644060591623 159.5576791181757 M319.0835074549911 159.4522590758908 C210.26384853048586 158.56685127636018, 101.35768356443629 157.26185441857197, -0.3419111406906761 160.62912292037288 M-0.3304863218218088 159.0947593394667 C-1.6351487565785647 96.0966363940388, -0.3956059742718936 34.8354462031275, 1.0881542321294546 -1.7070608790963888 M0.5266529591754079 160.0649923561141 C0.46736054588109255 125.01271060388535, 1.5615130858495831 89.13552631717175, 0.5640849443152547 0.9443470416590571" stroke="#000000" stroke-width="1" fill="none"></path></g><g transform="translate(163 66) rotate(0 32.5 12.5)"><text x="32.5" y="18" font-family="Virgil, Segoe UI Emoji" font-size="20px" fill="#000000" text-anchor="middle" style="white-space: pre;" direction="ltr">Closed</text></g><g transform="translate(735 66) rotate(0 22.5 12.5)"><text x="0" y="18" font-family="Virgil, Segoe UI Emoji" font-size="20px" fill="#000000" text-anchor="start" style="white-space: pre;" direction="ltr">Open</text></g><g transform="translate(445 449) rotate(0 46 12.5)"><text x="0" y="18" font-family="Virgil, Segoe UI Emoji" font-size="20px" fill="#000000" text-anchor="start" style="white-space: pre;" direction="ltr">Half-Open</text></g><g stroke-linecap="round"><g transform="translate(318 55) rotate(0 171.81894617337736 -0.43308796963721363)"><path d="M1.5803438801318404 1.5794378440827126 C58.68170170175532 1.6895120979597165, 287.71652948645254 1.8615072172135112, 344.64417171664536 1.612934188172221 M-1.0062793698906898 -0.03146399348974249 C55.77706740707159 -0.8191932472586635, 286.68037893623114 -3.0683691868186003, 343.84157025665047 -2.522141226232052" stroke="#000000" stroke-width="1" fill="none"></path></g><g transform="translate(318 55) rotate(0 171.81894617337736 -0.43308796963721363)"><path d="M317.9242654039434 11.562804762908467 C328.4027347275719 5.263029173023987, 336.7250016190824 -3.884660656384024, 342.5472175948322 -2.219479855746031 M315.34000790742255 6.869190203660378 C326.22266326448863 5.508543649276806, 336.6036628198476 -0.9850876224538592, 341.8486711125821 -1.7567245500534776" stroke="#000000" stroke-width="1" fill="none"></path></g><g transform="translate(318 55) rotate(0 171.81894617337736 -0.43308796963721363)"><path d="M317.8900756682823 -8.958375355394047 C328.52090367832034 -7.609981728734496, 336.85591360300293 -9.109116402030509, 342.5472175948322 -2.219479855746031 M315.3058181717614 -13.651989914642137 C326.15592188514023 -7.949434826127526, 336.54868870536137 -7.380181373346584, 341.8486711125821 -1.7567245500534776" stroke="#000000" stroke-width="1" fill="none"></path></g></g><g stroke-linecap="round"><g transform="translate(759 162) rotate(0 -54.38979028467088 118.67630685158076)"><path d="M2.719863561913371 -1.4660028796643019 C-15.463149316981433 38.25265332249304, -91.41187194573382 199.19597414918243, -110.22500427551567 238.81861658282577 M0.7518367105722428 3.9098560327291487 C-17.54165511707465 42.6991770229737, -92.87963089247543 195.16385598440965, -111.49944413125515 234.252340182662" stroke="#000000" stroke-width="1" fill="none"></path></g><g transform="translate(759 162) rotate(0 -54.38979028467088 118.67630685158076)"><path d="M-110.4976528745681 206.94823800727107 C-107.93013151656216 214.85374718284487, -112.37543930806468 223.42101932725745, -110.17948751941323 237.87795040383935 M-108.55180979078412 202.73973534397163 C-109.45730760159908 216.66138207341075, -110.46697869671996 227.5290068104271, -112.45965410254895 235.95681585930288" stroke="#000000" stroke-width="1" fill="none"></path></g><g transform="translate(759 162) rotate(0 -54.38979028467088 118.67630685158076)"><path d="M-92.04133787845677 215.91955001556482 C-94.30036087692098 221.85329935564528, -103.53974460549814 228.0902498170994, -110.17948751941323 237.87795040383935 M-90.09549479467279 211.71104735226538 C-98.19550098750511 221.9826345035465, -106.50971389876165 229.29964126920783, -112.45965410254895 235.95681585930288" stroke="#000000" stroke-width="1" fill="none"></path></g></g><g stroke-linecap="round"><g transform="translate(329 393) rotate(0 -56.49401609282944 -121.03897192664448)"><path d="M1.3828441996127365 -0.7276404935866592 C-17.055305781091253 -40.8986923892051, -92.6548791906486 -201.10674513168632, -111.73426592163742 -241.35030335970222 M-1.3109931626915934 -3.5909562858939172 C-20.08860128074884 -43.3724230274558, -96.68979445129632 -199.0079585251212, -114.37087638527154 -238.45399344295262" stroke="#000000" stroke-width="1" fill="none"></path></g><g transform="translate(329 393) rotate(0 -56.49401609282944 -121.03897192664448)"><path d="M-94.0805952008862 -218.40694954797152 C-100.47818002746929 -225.6339789997735, -107.23319100089475 -225.75301635248812, -110.88717981651425 -236.9369229595363 M-92.27757664397842 -216.89818905286018 C-99.47697584482839 -223.29638759413282, -105.40229568190215 -230.02213531689236, -114.66808906979858 -237.20748824767767" stroke="#000000" stroke-width="1" fill="none"></path></g><g transform="translate(329 393) rotate(0 -56.49401609282944 -121.03897192664448)"><path d="M-112.6310571948017 -209.6319645224495 C-114.17551934111411 -219.32830767218167, -116.09771495445077 -221.73342730305205, -110.88717981651425 -236.9369229595363 M-110.82803863789393 -208.12320402733815 C-113.27038316010312 -216.77297098865316, -114.32189142759415 -225.80419355911906, -114.66808906979858 -237.20748824767767" stroke="#000000" stroke-width="1" fill="none"></path></g></g><g stroke-linecap="round"><g transform="translate(651 452) rotate(0 83.92605947069825 -149.48328992538154)"><path d="M-0.6843595463782548 -0.3196632247418165 C27.190117097025116 -50.35760950061182, 140.20782767546675 -248.98361087851225, 168.53647848777473 -298.64691662602127" stroke="#c92a2a" stroke-width="1.5" fill="none" stroke-dasharray="1.5 7"></path></g><g transform="translate(651 452) rotate(0 83.92605947069825 -149.48328992538154)"><path d="M163.04747718444406 -272.5913187253298 C163.98751792084698 -281.7283966341094, 166.2253110539797 -286.45087649985, 165.10940436460078 -294.9419163558632" stroke="#c92a2a" stroke-width="1.5" fill="none" stroke-dasharray="3 4"></path></g><g transform="translate(651 452) rotate(0 83.92605947069825 -149.48328992538154)"><path d="M145.2144324875271 -282.7452597938805 C152.44038725766148 -288.2813141528474, 160.84944475071183 -289.4899434286277, 165.10940436460078 -294.9419163558632" stroke="#c92a2a" stroke-width="1.5" fill="none" stroke-dasharray="3 4"></path></g></g><g transform="translate(359 77) rotate(0 121.5 37.5)"><text x="0" y="18" font-family="Virgil, Segoe UI Emoji" font-size="20px" fill="#000000" text-anchor="start" style="white-space: pre;" direction="ltr">requests failures</text><text x="0" y="43" font-family="Virgil, Segoe UI Emoji" font-size="20px" fill="#000000" text-anchor="start" style="white-space: pre;" direction="ltr">exceed some acceptable</text><text x="0" y="68" font-family="Virgil, Segoe UI Emoji" font-size="20px" fill="#000000" text-anchor="start" style="white-space: pre;" direction="ltr">threshold</text></g><g transform="translate(530 242) rotate(0 77.5 25)"><text x="0" y="18" font-family="Virgil, Segoe UI Emoji" font-size="20px" fill="#000000" text-anchor="start" style="white-space: pre;" direction="ltr">Cooldown period</text><text x="0" y="43" font-family="Virgil, Segoe UI Emoji" font-size="20px" fill="#000000" text-anchor="start" style="white-space: pre;" direction="ltr">Expires</text></g><g transform="translate(10 253) rotate(0 124 37.5)"><text x="0" y="18" font-family="Virgil, Segoe UI Emoji" font-size="20px" fill="#000000" text-anchor="start" style="white-space: pre;" direction="ltr">Requests have a success</text><text x="0" y="43" font-family="Virgil, Segoe UI Emoji" font-size="20px" fill="#000000" text-anchor="start" style="white-space: pre;" direction="ltr">rate that is higher than</text><text x="0" y="68" font-family="Virgil, Segoe UI Emoji" font-size="20px" fill="#000000" text-anchor="start" style="white-space: pre;" direction="ltr">some recovery criteria</text></g><g transform="translate(773 265) rotate(0 73 25)"><text x="0" y="18" font-family="Virgil, Segoe UI Emoji" font-size="20px" fill="#000000" text-anchor="start" style="white-space: pre;" direction="ltr">Requests </text><text x="0" y="43" font-family="Virgil, Segoe UI Emoji" font-size="20px" fill="#000000" text-anchor="start" style="white-space: pre;" direction="ltr">are still failing</text></g></svg>